<svg xmlns="http://www.w3.org/2000/svg" xmlns:xlink="http://www.w3.org/1999/xlink" width="500" zoomAndPan="magnify" viewBox="0 0 375 374.999991" height="500" preserveAspectRatio="xMidYMid meet" version="1.0"><defs><g/><clipPath id="716a311365"><path d="M 191 54 L 336 54 L 336 248 L 191 248 Z M 191 54 " clip-rule="nonzero"/></clipPath><clipPath id="32610f3802"><path d="M 168.054688 225.5625 L 202.324219 50.382812 L 359.839844 81.199219 L 325.566406 256.378906 Z M 168.054688 225.5625 " clip-rule="nonzero"/></clipPath><clipPath id="0a739df5f7"><path d="M 168.054688 225.5625 L 202.324219 50.382812 L 359.839844 81.199219 L 325.566406 256.378906 Z M 168.054688 225.5625 " clip-rule="nonzero"/></clipPath><clipPath id="1e790bd9b9"><path d="M 168.054688 225.5625 L 202.324219 50.382812 L 359.839844 81.199219 L 325.566406 256.378906 Z M 168.054688 225.5625 " clip-rule="nonzero"/></clipPath></defs><g clip-path="url(#716a311365)"><g clip-path="url(#32610f3802)"><g clip-path="url(#0a739df5f7)"><g clip-path="url(#1e790bd9b9)"><path fill="#000000" d="M 246.582031 214.046875 C 246.726562 213.605469 247.363281 213.996094 247.320312 214.5 C 246.890625 219.785156 247.972656 222.125 252.445312 225.519531 C 252.648438 225.667969 252.734375 225.871094 252.695312 226.121094 C 252.691406 226.167969 252.679688 226.210938 252.652344 226.246094 C 252.625 226.285156 252.59375 226.316406 252.550781 226.335938 C 252.507812 226.355469 252.464844 226.363281 252.417969 226.359375 C 252.371094 226.359375 252.328125 226.34375 252.292969 226.316406 C 247.59375 224.078125 245.929688 224.71875 244.421875 229.34375 C 244.277344 229.78125 243.640625 229.390625 243.683594 228.886719 C 244.109375 223.601562 243.03125 221.261719 238.558594 217.867188 C 238.351562 217.71875 238.269531 217.519531 238.304688 217.265625 C 238.3125 217.164062 238.363281 217.09375 238.453125 217.050781 C 238.542969 217.007812 238.632812 217.011719 238.714844 217.070312 C 243.40625 219.308594 245.070312 218.667969 246.582031 214.046875 Z M 262.851562 209.609375 C 262.828125 209.714844 262.769531 209.796875 262.679688 209.859375 C 262.589844 209.917969 262.488281 209.941406 262.382812 209.925781 L 251.679688 208.105469 C 251.414062 208.050781 251.234375 208.257812 251.179688 208.539062 C 251.125 208.898438 251.191406 209.234375 251.390625 209.546875 L 259.722656 223.09375 C 259.886719 223.363281 259.964844 223.65625 259.949219 223.976562 L 258.828125 238.34375 C 258.773438 239.058594 259.363281 239.839844 259.828125 239.664062 L 269.148438 236.152344 C 269.402344 236.09375 269.605469 236.167969 269.761719 236.382812 L 279.761719 247.082031 C 280.164062 247.503906 280.578125 247.359375 280.671875 246.890625 C 280.699219 246.746094 280.699219 246.601562 280.671875 246.457031 L 278.113281 230.726562 C 278.085938 230.582031 278.085938 230.441406 278.113281 230.300781 C 278.132812 230.179688 278.183594 230.074219 278.261719 229.980469 L 285.574219 222.226562 C 285.652344 222.132812 285.703125 222.027344 285.722656 221.90625 C 285.761719 221.640625 285.730469 221.382812 285.625 221.132812 C 285.519531 220.882812 285.355469 220.679688 285.136719 220.519531 L 274.222656 214.308594 C 273.96875 214.140625 273.796875 213.910156 273.703125 213.621094 L 268.21875 198.132812 C 267.945312 197.351562 267.246094 197.097656 267.039062 197.691406 Z M 214.113281 58.773438 C 214.046875 58.734375 213.976562 58.710938 213.902344 58.710938 C 213.828125 58.707031 213.753906 58.722656 213.6875 58.757812 C 213.621094 58.789062 213.566406 58.839844 213.523438 58.902344 C 213.484375 58.964844 213.460938 59.035156 213.453125 59.109375 C 213.394531 59.515625 213.527344 59.84375 213.851562 60.09375 C 218.742188 64.011719 220.136719 67.007812 219.816406 72.921875 C 219.773438 73.746094 220.789062 74.371094 221.042969 73.675781 C 222.855469 68.683594 225 67.863281 230.207031 70.148438 C 230.269531 70.1875 230.339844 70.210938 230.414062 70.210938 C 230.492188 70.214844 230.5625 70.199219 230.628906 70.164062 C 230.695312 70.128906 230.75 70.082031 230.792969 70.019531 C 230.832031 69.957031 230.859375 69.886719 230.863281 69.8125 C 230.921875 69.40625 230.789062 69.078125 230.464844 68.828125 C 225.574219 64.910156 224.179688 61.914062 224.5 56 C 224.542969 55.175781 223.53125 54.550781 223.277344 55.246094 C 221.457031 60.246094 219.320312 61.070312 214.113281 58.773438 Z M 192.273438 101.816406 C 189.402344 116.484375 193.5625 135.042969 202.738281 153.746094 C 196.691406 139.296875 194.203125 125.28125 196.429688 113.890625 L 196.496094 113.5625 C 202.292969 85.167969 235.582031 84.144531 270.820312 111.273438 C 305.941406 138.292969 329.761719 183.0625 324.203125 211.472656 L 324.136719 211.800781 C 320.597656 229.089844 306.875 236.226562 288.71875 233.046875 C 312.019531 239.539062 330.128906 232.042969 334.46875 210.835938 L 334.539062 210.464844 C 340.730469 178.832031 314.214844 128.992188 275.117188 98.902344 C 235.875 68.695312 198.816406 69.839844 192.347656 101.449219 Z M 192.273438 101.816406 " fill-opacity="1" fill-rule="nonzero"/></g></g></g></g><g fill="#000000" fill-opacity="1"><g transform="translate(14.896144, 207.23385)"><g><path d="M 15.753906 0 L 51.40625 0 L 51.40625 -31.921875 C 51.40625 -46.429688 42.699219 -53.890625 28.191406 -53.890625 L 6.300781 -53.890625 L 6.21875 -32.085938 C 6.21875 -32.085938 25.535156 -29.765625 25.785156 -42.863281 C 25.785156 -45.933594 24.789062 -48.171875 23.214844 -49.746094 L 23.796875 -50.574219 C 28.023438 -48.335938 30.761719 -44.273438 30.59375 -37.308594 L 30.59375 -29.433594 L 17.660156 -29.433594 C -3.566406 -29.433594 -4.976562 0 15.753906 0 Z M 30.761719 -27.027344 L 30.761719 -12.519531 C 33 -12.105469 34.65625 -10.199219 34.65625 -7.875 C 34.65625 -5.304688 32.585938 -3.234375 30.015625 -3.234375 C 24.789062 -3.234375 22.550781 -11.191406 22.632812 -15.089844 C 22.71875 -20.5625 26.035156 -25.203125 30.761719 -27.027344 Z M 30.761719 -27.027344 "/></g></g></g><g fill="#000000" fill-opacity="1"><g transform="translate(68.206831, 207.23385)"><g><path d="M 1.242188 -26.53125 C 1.328125 -5.886719 15.421875 1.660156 34.160156 0.496094 L 34.160156 -0.582031 C 26.53125 -1.078125 22.550781 -13.761719 22.550781 -26.28125 C 22.550781 -34.078125 23.878906 -48.75 33.082031 -51.074219 L 33.496094 -50.160156 C 30.925781 -48.421875 29.101562 -45.683594 29.183594 -41.289062 C 29.433594 -27.195312 48.667969 -29.765625 48.667969 -29.765625 C 48.585938 -37.722656 48.667969 -45.851562 48.667969 -53.808594 L 32.417969 -53.808594 C 13.679688 -53.808594 1.160156 -47.675781 1.242188 -26.53125 Z M 48.75 -23.878906 L 48.75 -0.0820312 C 48.75 -0.0820312 29.101562 2.40625 28.9375 -11.855469 C 28.6875 -24.707031 44.523438 -23.878906 48.75 -23.878906 Z M 48.75 -23.878906 "/></g></g></g><g fill="#000000" fill-opacity="1"><g transform="translate(118.449861, 207.23385)"><g><path d="M 32.253906 -53.890625 L 32.253906 -27.277344 C 32.253906 -19.566406 22.800781 -19.648438 22.800781 -27.359375 L 22.800781 -53.890625 L 2.488281 -53.890625 L 2.488281 -19.898438 C 2.488281 -9.367188 4.808594 0 16.914062 0.332031 C 27.691406 0.496094 30.925781 -9.285156 31.175781 -18.820312 L 32.253906 -18.820312 L 32.253906 0 L 52.898438 0 L 52.898438 -53.890625 Z M 32.253906 -53.890625 "/></g></g></g><g fill="#000000" fill-opacity="1"><g transform="translate(173.252918, 207.23385)"><g><path d="M 37.476562 -53.890625 L 2.488281 -53.890625 L 2.488281 -0.0820312 L 37.972656 -0.0820312 C 56.792969 -0.0820312 57.292969 -24.292969 41.371094 -28.6875 C 53.976562 -32.417969 54.058594 -53.890625 37.476562 -53.890625 Z M 22.71875 -29.597656 L 22.71875 -52.234375 C 33.246094 -50.078125 32.914062 -31.753906 22.71875 -29.597656 Z M 31.175781 -15.421875 C 31.257812 -10.113281 28.605469 -3.152344 23.214844 -3.152344 C 20.644531 -3.152344 18.488281 -5.222656 18.488281 -7.875 C 18.488281 -10.28125 20.394531 -12.269531 22.800781 -12.519531 C 22.71875 -17.410156 22.71875 -22.21875 22.71875 -27.113281 C 27.609375 -25.453125 31.089844 -20.894531 31.175781 -15.421875 Z M 31.175781 -15.421875 "/></g></g></g><g fill="#000000" fill-opacity="1"><g transform="translate(226.729418, 207.23385)"><g><path d="M 2.488281 -53.976562 L 2.488281 -0.0820312 L 24.128906 -0.0820312 L 24.128906 -53.976562 Z M 2.488281 -53.976562 "/></g></g></g></svg>