<svg xmlns="http://www.w3.org/2000/svg" xmlns:xlink="http://www.w3.org/1999/xlink" width="500" zoomAndPan="magnify" viewBox="0 0 375 374.999991" height="500" preserveAspectRatio="xMidYMid meet" version="1.0"><defs><g/><clipPath id="9569f72905"><path d="M 233.105469 157.039062 L 371 157.039062 L 371 267.910156 L 233.105469 267.910156 Z M 233.105469 157.039062 " clip-rule="nonzero"/></clipPath><clipPath id="51e82d8280"><path d="M 4.226562 106.949219 L 141.886719 106.949219 L 141.886719 217.949219 L 4.226562 217.949219 Z M 4.226562 106.949219 " clip-rule="nonzero"/></clipPath></defs><g clip-path="url(#9569f72905)"><path fill="#000000" d="M 278.402344 157.0625 C 262.113281 157.0625 246.824219 158.980469 233.535156 162.359375 C 242.679688 160.96875 252.460938 160.21875 262.625 160.21875 C 313.582031 160.21875 354.894531 179.03125 354.894531 202.238281 C 354.894531 218.023438 335.769531 231.773438 307.492188 238.964844 C 344.195312 233.410156 370.667969 217.65625 370.667969 199.070312 C 370.667969 175.871094 329.359375 157.0625 278.402344 157.0625 Z M 280.113281 245.933594 L 280.113281 246.273438 C 300.457031 246.273438 301.929688 249.574219 301.929688 268.101562 L 302.273438 268.101562 C 302.273438 249.574219 303.757812 246.273438 324.097656 246.273438 L 324.097656 245.933594 C 303.757812 245.933594 302.273438 242.640625 302.273438 224.113281 L 301.929688 224.113281 C 301.929688 242.640625 300.457031 245.933594 280.113281 245.933594 " fill-opacity="1" fill-rule="evenodd"/></g><g clip-path="url(#51e82d8280)"><path fill="#000000" d="M 96.589844 217.929688 C 112.875 217.929688 128.167969 216.011719 141.457031 212.632812 C 132.308594 214.023438 122.53125 214.773438 112.363281 214.773438 C 61.40625 214.773438 20.097656 195.960938 20.097656 172.753906 C 20.097656 156.96875 39.21875 143.214844 67.5 136.027344 C 30.792969 141.582031 4.324219 157.335938 4.324219 175.921875 C 4.324219 199.121094 45.632812 217.929688 96.589844 217.929688 Z M 94.878906 129.058594 L 94.878906 128.71875 C 74.535156 128.71875 73.058594 125.417969 73.058594 106.890625 L 72.71875 106.890625 C 72.71875 125.417969 71.234375 128.71875 50.890625 128.71875 L 50.890625 129.058594 C 71.234375 129.058594 72.71875 132.351562 72.71875 150.878906 L 73.058594 150.878906 C 73.058594 132.351562 74.535156 129.058594 94.878906 129.058594 " fill-opacity="1" fill-rule="evenodd"/></g><path stroke-linecap="butt" transform="matrix(0.931781, 0, 0, 0.931781, 79.969804, 135.139678)" fill="none" stroke-linejoin="miter" d="M 2.367484 50.001856 L 9.133759 50.001856 C 10.139896 50.001856 10.592658 48.442343 9.745826 47.842853 C 9.58652 47.742239 9.439792 47.633241 9.293064 47.536819 C 8.584575 47.033751 8.286926 46.090497 8.643267 45.180781 L 8.789995 44.677712 L 10.542351 40.154286 L 25.613452 40.154286 L 27.365808 44.971169 C 27.621535 45.780271 27.315501 46.63968 26.619589 47.243363 C 26.313556 47.436206 26.066214 47.696124 25.810487 47.842853 C 24.963655 48.442343 25.416417 50.001856 26.409977 50.001856 L 43.489161 50.001856 C 44.541413 50.001856 44.998367 48.442343 44.138958 47.842853 C 43.845501 47.633241 43.489161 47.436206 43.195704 47.243363 C 42.386602 46.786408 41.636191 45.977306 41.279851 45.180781 L 28.875014 13.793484 C 28.581557 12.934075 27.722148 12.334584 26.812432 12.284278 L 16.465985 11.684787 C 15.619153 11.634481 15.216698 12.137549 15.522732 12.984382 L 16.675597 16.099216 L 4.916366 45.180781 C 4.622909 45.931192 3.864114 46.63968 2.966974 47.079865 C 2.463906 47.339784 2.107565 47.582934 1.70511 47.842853 C 0.858278 48.442343 1.298463 50.001856 2.367484 50.001856 Z M 18.331532 20.572335 L 24.510893 37.198757 L 11.745524 37.198757 Z M 46.448882 38.255201 C 46.658494 46.333647 51.932331 50.697768 60.266503 50.697768 C 67.439425 50.697768 72.419806 48.199193 73.7194 42.019832 C 73.92482 40.866966 73.618786 40.204592 72.616841 40.057864 C 71.656818 39.95725 71.057328 40.460319 70.814178 41.562878 C 70.101497 44.728019 67.699344 46.430068 64.534203 46.430068 C 61.067221 46.383953 58.501571 44.275257 57.30259 38.904998 C 56.099417 33.580854 57.30259 29.158041 59.558015 28.701087 C 65.330729 27.502107 59.310673 36.536383 66.789628 37.249064 C 71.107635 37.643134 73.472058 35.383517 73.166024 32.578909 C 72.822261 28.701087 67.992801 25.795865 60.966607 25.795865 C 52.628243 25.795865 46.256039 30.113872 46.448882 38.255201 Z M 76.37728 30.063565 C 77.739757 30.113872 78.192519 30.113872 78.192519 31.7195 L 78.192519 42.816358 C 78.192519 48.13631 81.00132 50.651653 87.428023 50.551039 C 90.995619 50.454618 94.512908 48.84899 96.315571 45.880885 C 96.718026 49.041833 99.736438 50.601346 103.547184 50.651653 C 111.235751 50.748075 111.986162 46.887022 110.782989 46.580989 C 110.133192 46.430068 109.533702 47.339784 108.770714 47.243363 C 107.86519 47.142749 107.571734 46.237225 107.571734 44.677712 C 107.571734 42.669629 107.617848 36.34354 107.617848 32.872366 L 107.617848 30.922974 C 107.617848 26.592391 106.209256 25.896479 102.297896 25.896479 C 99.476519 25.896479 96.168842 26.546276 94.206874 27.699142 C 93.15043 28.248326 93.456463 29.967144 94.563214 30.063565 C 95.9215 30.113872 96.378454 30.113872 96.378454 31.7195 L 96.378454 32.968787 L 96.315571 40.103979 C 96.022114 42.569016 94.462601 45.021476 92.353904 45.084359 C 89.536719 45.130474 89.385799 42.619322 89.436106 39.911136 L 89.486412 30.922974 C 89.486412 26.592391 88.04009 25.896479 84.116154 25.896479 C 81.307353 25.896479 77.9871 26.546276 76.037708 27.699142 C 74.981264 28.248326 75.274721 29.967144 76.37728 30.063565 Z M 113.239641 16.908318 C 113.902015 16.908318 114.698541 16.749013 115.348338 16.749013 C 116.056826 16.749013 116.559895 16.958625 116.559895 17.75515 L 116.559895 45.084359 C 116.559895 45.977306 116.056826 46.836715 115.201609 47.243363 C 114.845269 47.436206 114.501505 47.633241 114.195472 47.842853 C 113.348639 48.442343 113.851708 50.001856 114.845269 50.001856 C 119.725036 50.001856 120.974323 48.798683 123.992735 48.245308 C 126.650615 47.742239 127.510024 50.404311 132.121488 50.651653 C 132.280793 50.651653 132.427521 50.697768 132.57425 50.697768 C 140.56885 50.697768 145.289312 46.333647 145.289312 38.255201 C 145.289312 30.357022 140.116088 25.343104 132.326908 25.896479 C 130.821894 26.043208 129.409109 26.349241 128.109515 26.85231 L 128.109515 17.507808 C 128.109515 12.934075 126.503887 12.431006 122.483529 12.431006 C 119.125545 12.431006 115.100996 13.2443 112.895878 14.543895 C 111.839433 15.093078 112.137082 16.811896 113.239641 16.908318 Z M 129.409109 29.158041 C 131.67711 28.751394 132.377214 30.470212 133.580387 37.802439 C 134.842251 45.130474 134.842251 47.436206 132.57425 47.842853 C 130.268518 48.245308 129.262381 45.931192 128.30655 38.695386 C 127.350719 31.312853 127.103377 29.514382 129.409109 29.158041 Z M 148.089728 30.813976 C 148.752102 30.813976 149.598934 30.663055 150.248731 30.663055 C 150.961412 30.663055 151.464481 30.860091 151.464481 31.669193 L 151.464481 45.084359 C 151.464481 45.977306 150.911105 46.836715 150.102003 47.243363 C 149.699548 47.436206 149.355784 47.633241 149.095865 47.842853 C 148.249033 48.442343 148.69341 50.001856 149.699548 50.001856 L 164.263388 50.001856 C 165.269525 50.001856 165.772594 48.442343 164.913185 47.842853 C 164.619728 47.633241 164.313695 47.436206 164.066353 47.289477 C 163.25725 46.786408 162.754182 45.931192 162.754182 45.084359 L 162.754182 31.413466 C 162.754182 26.948731 161.148554 26.349241 157.19108 26.349241 C 153.975632 26.349241 150.005581 27.145767 147.750157 28.457937 C 146.744019 29.011313 146.987169 30.713362 148.089728 30.813976 Z M 149.502513 17.055046 C 149.502513 20.475914 152.013664 22.475612 156.281364 22.475612 C 160.549064 22.475612 163.0141 20.475914 163.0141 17.055046 C 163.0141 13.697062 160.549064 11.735094 156.281364 11.735094 C 152.013664 11.735094 149.502513 13.697062 149.502513 17.055046 Z M 149.502513 17.055046 " stroke="#000000" stroke-width="6.654931" stroke-opacity="1" stroke-miterlimit="4"/><g fill="#ffffff" fill-opacity="1"><g transform="translate(79.969804, 181.728739)"><g><path d="M 2.199219 0 L 8.515625 0 C 9.453125 0 9.875 -1.449219 9.078125 -2.011719 C 8.9375 -2.105469 8.796875 -2.199219 8.65625 -2.292969 C 8 -2.761719 7.722656 -3.648438 8.046875 -4.492188 L 8.1875 -4.960938 L 9.828125 -9.171875 L 23.863281 -9.171875 L 25.503906 -4.679688 C 25.738281 -3.929688 25.457031 -3.136719 24.800781 -2.574219 C 24.519531 -2.386719 24.285156 -2.152344 24.050781 -2.011719 C 23.257812 -1.449219 23.679688 0 24.613281 0 L 40.523438 0 C 41.507812 0 41.925781 -1.449219 41.132812 -2.011719 C 40.851562 -2.199219 40.523438 -2.386719 40.242188 -2.574219 C 39.496094 -2.996094 38.792969 -3.742188 38.464844 -4.492188 L 26.90625 -33.738281 C 26.625 -34.535156 25.832031 -35.09375 24.988281 -35.140625 L 15.347656 -35.703125 C 14.554688 -35.75 14.179688 -35.28125 14.460938 -34.488281 L 15.535156 -31.585938 L 4.585938 -4.492188 C 4.304688 -3.789062 3.601562 -3.136719 2.761719 -2.714844 C 2.292969 -2.480469 1.964844 -2.246094 1.589844 -2.011719 C 0.796875 -1.449219 1.214844 0 2.199219 0 Z M 17.078125 -27.421875 L 22.835938 -11.933594 L 10.949219 -11.933594 Z M 17.078125 -27.421875 "/></g></g></g><g fill="#ffffff" fill-opacity="1"><g transform="translate(122.691765, 181.728739)"><g><path d="M 0.5625 -10.949219 C 0.75 -3.414062 5.660156 0.65625 13.429688 0.65625 C 20.121094 0.65625 24.753906 -1.683594 25.96875 -7.441406 C 26.15625 -8.515625 25.878906 -9.125 24.941406 -9.265625 C 24.050781 -9.359375 23.492188 -8.890625 23.257812 -7.863281 C 22.601562 -4.914062 20.355469 -3.324219 17.40625 -3.324219 C 14.179688 -3.371094 11.792969 -5.335938 10.667969 -10.339844 C 9.546875 -15.300781 10.667969 -19.417969 12.773438 -19.839844 C 18.15625 -20.964844 12.539062 -12.539062 19.511719 -11.886719 C 23.539062 -11.511719 25.738281 -13.617188 25.457031 -16.238281 C 25.128906 -19.839844 20.636719 -22.554688 14.085938 -22.554688 C 6.316406 -22.554688 0.375 -18.53125 0.5625 -10.949219 Z M 0.5625 -10.949219 "/></g></g></g><g fill="#ffffff" fill-opacity="1"><g transform="translate(150.018848, 181.728739)"><g><path d="M 1.125 -18.578125 C 2.386719 -18.53125 2.808594 -18.53125 2.808594 -17.03125 L 2.808594 -6.691406 C 2.808594 -1.730469 5.429688 0.609375 11.417969 0.515625 C 14.738281 0.421875 18.015625 -1.078125 19.699219 -3.835938 C 20.074219 -0.890625 22.882812 0.5625 26.4375 0.609375 C 33.597656 0.703125 34.300781 -2.902344 33.175781 -3.183594 C 32.570312 -3.324219 32.007812 -2.480469 31.304688 -2.574219 C 30.464844 -2.667969 30.183594 -3.507812 30.183594 -4.960938 C 30.183594 -6.832031 30.230469 -12.726562 30.230469 -15.957031 L 30.230469 -17.78125 C 30.230469 -21.804688 28.917969 -22.460938 25.269531 -22.460938 C 22.648438 -22.460938 19.558594 -21.851562 17.734375 -20.777344 C 16.753906 -20.261719 17.03125 -18.671875 18.0625 -18.578125 C 19.324219 -18.53125 19.746094 -18.53125 19.746094 -17.03125 L 19.746094 -15.863281 L 19.699219 -9.21875 C 19.417969 -6.925781 17.96875 -4.632812 16.003906 -4.585938 C 13.382812 -4.539062 13.242188 -6.878906 13.289062 -9.40625 L 13.335938 -17.78125 C 13.335938 -21.804688 11.980469 -22.460938 8.328125 -22.460938 C 5.707031 -22.460938 2.621094 -21.851562 0.796875 -20.777344 C -0.1875 -20.261719 0.09375 -18.671875 1.125 -18.578125 Z M 1.125 -18.578125 "/></g></g></g><g fill="#ffffff" fill-opacity="1"><g transform="translate(184.318082, 181.728739)"><g><path d="M 1.167969 -30.835938 C 1.777344 -30.835938 2.527344 -30.976562 3.136719 -30.976562 C 3.789062 -30.976562 4.257812 -30.789062 4.257812 -30.042969 L 4.257812 -4.585938 C 4.257812 -3.742188 3.789062 -2.949219 2.996094 -2.574219 C 2.667969 -2.386719 2.339844 -2.199219 2.058594 -2.011719 C 1.261719 -1.449219 1.730469 0 2.667969 0 C 7.207031 0 8.375 -1.125 11.183594 -1.636719 C 13.664062 -2.105469 14.460938 0.375 18.765625 0.609375 C 18.90625 0.609375 19.046875 0.65625 19.1875 0.65625 C 26.625 0.65625 31.023438 -3.414062 31.023438 -10.949219 C 31.023438 -18.296875 26.203125 -22.976562 18.953125 -22.460938 C 17.546875 -22.320312 16.238281 -22.039062 15.019531 -21.570312 L 15.019531 -30.277344 C 15.019531 -34.535156 13.523438 -35.003906 9.78125 -35.003906 C 6.644531 -35.003906 2.902344 -34.253906 0.84375 -33.035156 C -0.140625 -32.523438 0.140625 -30.929688 1.167969 -30.835938 Z M 16.238281 -19.417969 C 18.34375 -19.792969 19 -18.203125 20.121094 -11.371094 C 21.292969 -4.539062 21.292969 -2.386719 19.1875 -2.011719 C 17.03125 -1.636719 16.097656 -3.789062 15.207031 -10.527344 C 14.320312 -17.40625 14.085938 -19.09375 16.238281 -19.417969 Z M 16.238281 -19.417969 "/></g></g></g><g fill="#ffffff" fill-opacity="1"><g transform="translate(216.839188, 181.728739)"><g><path d="M 1.125 -17.875 C 1.730469 -17.875 2.527344 -18.015625 3.136719 -18.015625 C 3.789062 -18.015625 4.257812 -17.828125 4.257812 -17.078125 L 4.257812 -4.585938 C 4.257812 -3.742188 3.742188 -2.949219 2.996094 -2.574219 C 2.621094 -2.386719 2.292969 -2.199219 2.058594 -2.011719 C 1.261719 -1.449219 1.683594 0 2.621094 0 L 16.191406 0 C 17.125 0 17.59375 -1.449219 16.800781 -2.011719 C 16.519531 -2.199219 16.238281 -2.386719 16.003906 -2.527344 C 15.253906 -2.996094 14.785156 -3.789062 14.785156 -4.585938 L 14.785156 -17.3125 C 14.785156 -21.476562 13.289062 -22.039062 9.59375 -22.039062 C 6.597656 -22.039062 2.902344 -21.292969 0.796875 -20.074219 C -0.140625 -19.558594 0.09375 -17.96875 1.125 -17.875 Z M 2.433594 -30.695312 C 2.433594 -27.515625 4.773438 -25.644531 8.75 -25.644531 C 12.726562 -25.644531 15.019531 -27.515625 15.019531 -30.695312 C 15.019531 -33.832031 12.726562 -35.65625 8.75 -35.65625 C 4.773438 -35.65625 2.433594 -33.832031 2.433594 -30.695312 Z M 2.433594 -30.695312 "/></g></g></g><path stroke-linecap="butt" transform="matrix(0.877493, 0, 0, 0.877493, 145.468428, 167.730985)" fill="none" stroke-linejoin="miter" d="M 1.861137 33.689145 C 2.292943 45.316733 9.544605 53.690199 23.148704 53.690199 C 34.397906 53.690199 41.275633 48.78008 42.392985 39.342682 C 42.615565 37.584298 42.290598 35.932753 40.688021 35.825915 C 38.876219 35.723528 38.448865 37.481911 38.239639 38.97765 C 37.278093 45.160927 33.071328 48.900274 27.680436 48.900274 C 19.306971 48.900274 16.159687 42.062611 15.247108 34.601724 C 14.076337 24.73252 15.14027 17.636664 20.793806 16.946665 C 24.684507 16.465892 28.317016 17.912663 27.836243 24.474327 C 27.457856 29.535799 31.143784 31.881794 35.728935 31.503408 C 41.275633 31.089409 42.134792 25.747485 40.910601 22.546782 C 38.876219 17.053504 32.537136 13.639124 22.823737 13.639124 C 9.232992 13.639124 1.496106 21.531817 1.861137 33.689145 Z M 45.001625 17.859244 C 45.704978 17.859244 46.604202 17.690083 47.307555 17.690083 C 48.050973 17.690083 48.585165 17.912663 48.585165 18.758468 L 48.585165 47.77847 C 48.585165 48.731113 47.997554 49.63924 47.138394 50.071045 C 46.71104 50.280271 46.346009 50.485045 46.07001 50.707625 C 45.170786 51.348656 45.656011 53.0002 46.71104 53.0002 L 62.17591 53.0002 C 63.244295 53.0002 63.778487 51.348656 62.879264 50.707625 C 62.554297 50.485045 62.22933 50.280271 61.966685 50.124465 C 61.107526 49.590272 60.577785 48.677694 60.577785 47.77847 L 60.577785 18.495823 C 60.577785 13.745963 58.819401 13.104932 54.612636 13.104932 C 51.135934 13.104932 46.982588 13.964091 44.641045 15.344088 C 43.57266 15.9317 43.830853 17.756857 45.001625 17.859244 Z M 65.483452 31.828375 C 66.930223 31.881794 67.410996 31.881794 67.410996 33.586758 L 67.410996 45.370152 C 67.410996 51.019237 70.39357 53.690199 77.213426 53.587812 C 81.001741 53.480974 84.741087 51.776009 86.655277 48.624274 C 87.082631 51.985235 90.287785 53.63678 94.334292 53.690199 C 102.498533 53.792586 103.290918 49.692659 102.01776 49.367692 C 101.327761 49.211886 100.691182 50.173432 99.88099 50.071045 C 98.919444 49.964207 98.607832 49.002661 98.607832 47.351116 C 98.607832 45.214346 98.656799 38.496877 98.656799 34.810949 L 98.656799 32.740954 C 98.656799 28.146899 97.16106 27.403482 93.007715 27.403482 C 90.011786 27.403482 86.495019 28.09348 84.41612 29.317671 C 83.294316 29.900831 83.619283 31.725988 84.790055 31.828375 C 86.236826 31.881794 86.717599 31.881794 86.717599 33.586758 L 86.717599 34.913336 L 86.655277 42.494417 C 86.339213 45.111959 84.687668 47.711696 82.448512 47.77847 C 79.452583 47.831889 79.296777 45.160927 79.350196 42.285191 L 79.399163 32.740954 C 79.399163 28.146899 77.86336 27.403482 73.69666 27.403482 C 70.718537 27.403482 67.188416 28.09348 65.11842 29.317671 C 63.996616 29.900831 64.31268 31.725988 65.483452 31.828375 Z M 104.626399 17.859244 C 105.325301 17.859244 106.175557 17.690083 106.865556 17.690083 C 107.617877 17.690083 108.152069 17.912663 108.152069 18.758468 L 108.152069 47.77847 C 108.152069 48.731113 107.617877 49.63924 106.70975 50.071045 C 106.331363 50.280271 105.966332 50.485045 105.641365 50.707625 C 104.742141 51.348656 105.276333 53.0002 106.331363 53.0002 C 111.513029 53.0002 112.839607 51.72259 116.044762 51.13943 C 118.867078 50.605238 119.779657 53.427554 124.67642 53.690199 C 124.845581 53.690199 125.001387 53.743618 125.157194 53.743618 C 133.646401 53.743618 138.658906 49.105048 138.658906 40.526808 C 138.658906 32.139987 133.165628 26.81587 124.894549 27.403482 C 123.296423 27.559288 121.796233 27.884255 120.416236 28.418447 L 120.416236 18.495823 C 120.416236 13.639124 118.711272 13.104932 114.442184 13.104932 C 110.871999 13.104932 106.602911 13.964091 104.261368 15.344088 C 103.139564 15.9317 103.451176 17.756857 104.626399 17.859244 Z M 121.796233 30.866829 C 124.20455 30.435023 124.947968 32.260181 126.225578 40.046035 C 127.565511 47.831889 127.565511 50.280271 125.157194 50.707625 C 122.708812 51.13943 121.640427 48.677694 120.625461 40.994226 C 119.610496 33.159405 119.352303 31.245215 121.796233 30.866829 Z M 121.796233 30.866829 " stroke="#000000" stroke-width="7.066662" stroke-opacity="1" stroke-miterlimit="4"/><g fill="#ffffff" fill-opacity="1"><g transform="translate(145.468428, 214.238105)"><g><path d="M 1.636719 -16.941406 C 2.011719 -6.738281 8.375 0.609375 20.308594 0.609375 C 30.183594 0.609375 36.21875 -3.695312 37.203125 -11.980469 C 37.390625 -13.523438 37.109375 -14.976562 35.707031 -15.070312 C 34.113281 -15.164062 33.742188 -13.617188 33.554688 -12.308594 C 32.710938 -6.878906 29.015625 -3.601562 24.289062 -3.601562 C 16.941406 -3.601562 14.179688 -9.59375 13.382812 -16.144531 C 12.355469 -24.800781 13.289062 -31.027344 18.25 -31.632812 C 21.667969 -32.054688 24.847656 -30.792969 24.429688 -25.035156 C 24.101562 -20.589844 27.328125 -18.53125 31.355469 -18.859375 C 36.21875 -19.234375 36.96875 -23.914062 35.894531 -26.722656 C 34.113281 -31.539062 28.546875 -34.535156 20.027344 -34.535156 C 8.097656 -34.535156 1.308594 -27.609375 1.636719 -16.941406 Z M 1.636719 -16.941406 "/></g></g></g><g fill="#ffffff" fill-opacity="1"><g transform="translate(183.793506, 214.238105)"><g><path d="M 1.167969 -30.839844 C 1.777344 -30.839844 2.574219 -30.980469 3.183594 -30.980469 C 3.835938 -30.980469 4.304688 -30.792969 4.304688 -30.042969 L 4.304688 -4.585938 C 4.304688 -3.742188 3.789062 -2.949219 3.042969 -2.574219 C 2.667969 -2.386719 2.339844 -2.199219 2.105469 -2.011719 C 1.308594 -1.449219 1.730469 0 2.667969 0 L 16.238281 0 C 17.175781 0 17.640625 -1.449219 16.847656 -2.011719 C 16.566406 -2.199219 16.285156 -2.386719 16.050781 -2.527344 C 15.300781 -2.996094 14.835938 -3.789062 14.835938 -4.585938 L 14.835938 -30.277344 C 14.835938 -34.441406 13.289062 -35.003906 9.59375 -35.003906 C 6.550781 -35.003906 2.902344 -34.253906 0.84375 -33.039062 C -0.09375 -32.523438 0.140625 -30.933594 1.167969 -30.839844 Z M 1.167969 -30.839844 "/></g></g></g><g fill="#ffffff" fill-opacity="1"><g transform="translate(201.809571, 214.238105)"><g><path d="M 1.125 -18.578125 C 2.386719 -18.53125 2.808594 -18.53125 2.808594 -17.035156 L 2.808594 -6.691406 C 2.808594 -1.730469 5.429688 0.609375 11.417969 0.515625 C 14.742188 0.421875 18.015625 -1.078125 19.703125 -3.835938 C 20.074219 -0.890625 22.882812 0.5625 26.441406 0.609375 C 33.601562 0.703125 34.300781 -2.902344 33.179688 -3.183594 C 32.570312 -3.324219 32.007812 -2.480469 31.308594 -2.574219 C 30.464844 -2.667969 30.183594 -3.507812 30.183594 -4.960938 C 30.183594 -6.832031 30.230469 -12.730469 30.230469 -15.957031 L 30.230469 -17.78125 C 30.230469 -21.808594 28.921875 -22.460938 25.269531 -22.460938 C 22.648438 -22.460938 19.5625 -21.855469 17.734375 -20.777344 C 16.753906 -20.261719 17.035156 -18.671875 18.0625 -18.578125 C 19.328125 -18.53125 19.75 -18.53125 19.75 -17.035156 L 19.75 -15.863281 L 19.703125 -9.21875 C 19.421875 -6.925781 17.96875 -4.632812 16.003906 -4.585938 C 13.382812 -4.539062 13.242188 -6.878906 13.289062 -9.40625 L 13.335938 -17.78125 C 13.335938 -21.808594 11.980469 -22.460938 8.328125 -22.460938 C 5.710938 -22.460938 2.621094 -21.855469 0.796875 -20.777344 C -0.1875 -20.261719 0.09375 -18.671875 1.125 -18.578125 Z M 1.125 -18.578125 "/></g></g></g><g fill="#ffffff" fill-opacity="1"><g transform="translate(236.110281, 214.238105)"><g><path d="M 1.167969 -30.839844 C 1.777344 -30.839844 2.527344 -30.980469 3.136719 -30.980469 C 3.789062 -30.980469 4.257812 -30.792969 4.257812 -30.042969 L 4.257812 -4.585938 C 4.257812 -3.742188 3.789062 -2.949219 2.996094 -2.574219 C 2.667969 -2.386719 2.339844 -2.199219 2.058594 -2.011719 C 1.261719 -1.449219 1.730469 0 2.667969 0 C 7.207031 0 8.375 -1.125 11.183594 -1.636719 C 13.664062 -2.105469 14.460938 0.375 18.765625 0.609375 C 18.90625 0.609375 19.046875 0.65625 19.1875 0.65625 C 26.628906 0.65625 31.027344 -3.417969 31.027344 -10.949219 C 31.027344 -18.296875 26.207031 -22.976562 18.953125 -22.460938 C 17.546875 -22.320312 16.238281 -22.042969 15.023438 -21.574219 L 15.023438 -30.277344 C 15.023438 -34.535156 13.523438 -35.003906 9.78125 -35.003906 C 6.644531 -35.003906 2.902344 -34.253906 0.84375 -33.039062 C -0.140625 -32.523438 0.140625 -30.933594 1.167969 -30.839844 Z M 16.238281 -19.421875 C 18.34375 -19.796875 19 -18.203125 20.121094 -11.371094 C 21.292969 -4.539062 21.292969 -2.386719 19.1875 -2.011719 C 17.035156 -1.636719 16.097656 -3.789062 15.207031 -10.527344 C 14.320312 -17.410156 14.085938 -19.09375 16.238281 -19.421875 Z M 16.238281 -19.421875 "/></g></g></g><g fill="#ffffff" fill-opacity="1"><g transform="translate(125.052489, 236.115548)"><g><path d="M 0.960938 -1.667969 C 1.949219 -0.589844 3.472656 0.148438 4.996094 0.148438 C 7.136719 0.148438 9.101562 -1.183594 9.101562 -3.238281 C 9.101562 -5.289062 7.433594 -6.074219 5.4375 -6.664062 C 4.183594 -7.019531 3.296875 -7.316406 3.296875 -8.070312 C 3.296875 -9.074219 4.242188 -9.25 4.996094 -9.25 C 5.867188 -9.25 6.636719 -8.628906 7.109375 -8.230469 C 7.226562 -8.144531 7.34375 -8.054688 7.464844 -8.054688 C 7.535156 -8.054688 7.597656 -8.082031 7.667969 -8.144531 L 8.484375 -9.015625 C 8.675781 -9.222656 8.675781 -9.398438 8.496094 -9.589844 C 7.625 -10.476562 6.355469 -11.171875 5.070312 -11.171875 C 2.691406 -11.171875 1.078125 -9.929688 1.078125 -8.113281 C 1.078125 -6.429688 2.351562 -5.484375 4.742188 -4.773438 C 5.527344 -4.566406 6.8125 -4.242188 6.8125 -3.296875 C 6.8125 -2.554688 6.117188 -1.863281 4.949219 -1.863281 C 3.828125 -1.863281 3 -2.527344 2.394531 -3.132812 C 2.289062 -3.222656 2.171875 -3.296875 2.070312 -3.296875 C 2.011719 -3.296875 1.949219 -3.265625 1.875 -3.207031 L 0.886719 -2.230469 C 0.679688 -2.023438 0.796875 -1.847656 0.960938 -1.667969 Z M 0.960938 -1.667969 "/></g></g></g><g fill="#ffffff" fill-opacity="1"><g transform="translate(140.584371, 236.115548)"><g><path d="M 0.308594 -9.28125 C 0.308594 -9.089844 0.398438 -8.984375 0.589844 -8.984375 L 3.355469 -8.984375 L 3.355469 -0.296875 C 3.355469 -0.101562 3.441406 0 3.636719 0 L 5.230469 0 C 5.421875 0 5.511719 -0.101562 5.511719 -0.296875 L 5.511719 -8.984375 L 8.347656 -8.984375 C 8.542969 -8.984375 8.644531 -9.089844 8.644531 -9.28125 L 8.644531 -10.683594 C 8.644531 -10.875 8.542969 -10.964844 8.347656 -10.964844 L 0.589844 -10.964844 C 0.398438 -10.964844 0.308594 -10.875 0.308594 -10.683594 Z M 0.308594 -9.28125 "/></g></g></g><g fill="#ffffff" fill-opacity="1"><g transform="translate(155.672939, 236.115548)"><g><path d="M 1.195312 -0.296875 C 1.195312 -0.101562 1.285156 0 1.476562 0 L 3.058594 0 C 3.265625 0 3.355469 -0.101562 3.355469 -0.296875 L 3.355469 -3.796875 L 5.601562 -3.796875 L 7.359375 -0.25 C 7.449219 -0.0585938 7.535156 0 7.699219 0 L 9.605469 0 C 9.796875 0 9.871094 -0.175781 9.796875 -0.308594 L 7.789062 -4.300781 C 8.894531 -4.949219 9.648438 -6.117188 9.648438 -7.359375 C 9.648438 -9.222656 8.203125 -10.964844 6.175781 -10.964844 L 1.476562 -10.964844 C 1.285156 -10.964844 1.195312 -10.832031 1.195312 -10.667969 Z M 5.660156 -9.058594 C 6.679688 -9.058594 7.449219 -8.335938 7.449219 -7.402344 C 7.449219 -6.441406 6.679688 -5.75 5.660156 -5.75 L 3.355469 -5.75 L 3.355469 -9.058594 Z M 5.660156 -9.058594 "/></g></g></g><g fill="#ffffff" fill-opacity="1"><g transform="translate(171.648147, 236.115548)"><g><path d="M 1.195312 -0.296875 C 1.195312 -0.101562 1.285156 0 1.476562 0 L 8.835938 0 C 9.03125 0 9.148438 -0.101562 9.148438 -0.296875 L 9.148438 -1.714844 C 9.148438 -1.90625 9.03125 -2.011719 8.835938 -2.011719 L 3.355469 -2.011719 L 3.355469 -4.714844 L 7.433594 -4.714844 C 7.640625 -4.714844 7.757812 -4.816406 7.757812 -5.007812 L 7.757812 -6.414062 C 7.757812 -6.621094 7.625 -6.710938 7.433594 -6.710938 L 3.355469 -6.710938 L 3.355469 -8.941406 L 8.703125 -8.941406 C 8.894531 -8.941406 9 -9.042969 9 -9.234375 L 9 -10.667969 C 9 -10.863281 8.894531 -10.964844 8.703125 -10.964844 L 1.476562 -10.964844 C 1.285156 -10.964844 1.195312 -10.863281 1.195312 -10.667969 Z M 1.195312 -0.296875 "/></g></g></g><g fill="#ffffff" fill-opacity="1"><g transform="translate(187.194815, 236.115548)"><g><path d="M 1.195312 -0.296875 C 1.195312 -0.101562 1.285156 0 1.476562 0 L 8.835938 0 C 9.03125 0 9.148438 -0.101562 9.148438 -0.296875 L 9.148438 -1.714844 C 9.148438 -1.90625 9.03125 -2.011719 8.835938 -2.011719 L 3.355469 -2.011719 L 3.355469 -4.714844 L 7.433594 -4.714844 C 7.640625 -4.714844 7.757812 -4.816406 7.757812 -5.007812 L 7.757812 -6.414062 C 7.757812 -6.621094 7.625 -6.710938 7.433594 -6.710938 L 3.355469 -6.710938 L 3.355469 -8.941406 L 8.703125 -8.941406 C 8.894531 -8.941406 9 -9.042969 9 -9.234375 L 9 -10.667969 C 9 -10.863281 8.894531 -10.964844 8.703125 -10.964844 L 1.476562 -10.964844 C 1.285156 -10.964844 1.195312 -10.863281 1.195312 -10.667969 Z M 1.195312 -0.296875 "/></g></g></g><g fill="#ffffff" fill-opacity="1"><g transform="translate(202.741483, 236.115548)"><g><path d="M 0.308594 -9.28125 C 0.308594 -9.089844 0.398438 -8.984375 0.589844 -8.984375 L 3.355469 -8.984375 L 3.355469 -0.296875 C 3.355469 -0.101562 3.441406 0 3.636719 0 L 5.230469 0 C 5.421875 0 5.511719 -0.101562 5.511719 -0.296875 L 5.511719 -8.984375 L 8.347656 -8.984375 C 8.542969 -8.984375 8.644531 -9.089844 8.644531 -9.28125 L 8.644531 -10.683594 C 8.644531 -10.875 8.542969 -10.964844 8.347656 -10.964844 L 0.589844 -10.964844 C 0.398438 -10.964844 0.308594 -10.875 0.308594 -10.683594 Z M 0.308594 -9.28125 "/></g></g></g><g fill="#ffffff" fill-opacity="1"><g transform="translate(217.830052, 236.115548)"><g><path d="M 9.515625 -0.265625 C 9.605469 -0.0742188 9.738281 0 9.902344 0 L 11.082031 0 C 11.230469 0 11.378906 -0.0742188 11.453125 -0.265625 L 15.664062 -10.640625 C 15.753906 -10.832031 15.648438 -10.964844 15.457031 -10.964844 L 13.730469 -10.964844 C 13.566406 -10.964844 13.433594 -10.890625 13.359375 -10.683594 L 10.460938 -3.074219 L 9.03125 -6.710938 L 10.609375 -10.640625 C 10.667969 -10.816406 10.582031 -10.964844 10.402344 -10.964844 L 8.675781 -10.964844 C 8.511719 -10.964844 8.394531 -10.890625 8.320312 -10.683594 L 5.496094 -3.058594 L 2.675781 -10.683594 C 2.601562 -10.875 2.484375 -10.964844 2.304688 -10.964844 L 0.636719 -10.964844 C 0.457031 -10.964844 0.355469 -10.832031 0.429688 -10.640625 L 4.523438 -0.265625 C 4.597656 -0.0742188 4.730469 0 4.890625 0 L 6.132812 0 C 6.308594 0 6.429688 -0.0742188 6.515625 -0.265625 L 7.964844 -4.003906 Z M 9.515625 -0.265625 "/></g></g></g><g fill="#ffffff" fill-opacity="1"><g transform="translate(239.627584, 236.115548)"><g><path d="M 1.195312 -0.296875 C 1.195312 -0.101562 1.285156 0 1.476562 0 L 8.835938 0 C 9.03125 0 9.148438 -0.101562 9.148438 -0.296875 L 9.148438 -1.714844 C 9.148438 -1.90625 9.03125 -2.011719 8.835938 -2.011719 L 3.355469 -2.011719 L 3.355469 -4.714844 L 7.433594 -4.714844 C 7.640625 -4.714844 7.757812 -4.816406 7.757812 -5.007812 L 7.757812 -6.414062 C 7.757812 -6.621094 7.625 -6.710938 7.433594 -6.710938 L 3.355469 -6.710938 L 3.355469 -8.941406 L 8.703125 -8.941406 C 8.894531 -8.941406 9 -9.042969 9 -9.234375 L 9 -10.667969 C 9 -10.863281 8.894531 -10.964844 8.703125 -10.964844 L 1.476562 -10.964844 C 1.285156 -10.964844 1.195312 -10.863281 1.195312 -10.667969 Z M 1.195312 -0.296875 "/></g></g></g><g fill="#ffffff" fill-opacity="1"><g transform="translate(255.174252, 236.115548)"><g><path d="M 0.222656 -0.308594 C 0.132812 -0.101562 0.222656 0 0.414062 0 L 2.039062 0 C 2.203125 0 2.335938 -0.0742188 2.410156 -0.265625 L 3.101562 -2.039062 L 7.640625 -2.039062 L 8.347656 -0.265625 C 8.421875 -0.0742188 8.542969 0 8.71875 0 L 10.328125 0 C 10.523438 0 10.625 -0.117188 10.535156 -0.308594 L 6.371094 -10.683594 C 6.296875 -10.875 6.164062 -10.964844 6 -10.964844 L 4.757812 -10.964844 C 4.609375 -10.964844 4.476562 -10.875 4.390625 -10.683594 Z M 5.378906 -8.128906 L 6.929688 -3.945312 L 3.796875 -3.945312 Z M 5.378906 -8.128906 "/></g></g></g><g fill="#ffffff" fill-opacity="1"><g transform="translate(271.814444, 236.115548)"><g><path d="M 1.195312 -0.296875 C 1.195312 -0.101562 1.285156 0 1.476562 0 L 3.058594 0 C 3.265625 0 3.355469 -0.101562 3.355469 -0.296875 L 3.355469 -3.796875 L 5.601562 -3.796875 L 7.359375 -0.25 C 7.449219 -0.0585938 7.535156 0 7.699219 0 L 9.605469 0 C 9.796875 0 9.871094 -0.175781 9.796875 -0.308594 L 7.789062 -4.300781 C 8.894531 -4.949219 9.648438 -6.117188 9.648438 -7.359375 C 9.648438 -9.222656 8.203125 -10.964844 6.175781 -10.964844 L 1.476562 -10.964844 C 1.285156 -10.964844 1.195312 -10.832031 1.195312 -10.667969 Z M 5.660156 -9.058594 C 6.679688 -9.058594 7.449219 -8.335938 7.449219 -7.402344 C 7.449219 -6.441406 6.679688 -5.75 5.660156 -5.75 L 3.355469 -5.75 L 3.355469 -9.058594 Z M 5.660156 -9.058594 "/></g></g></g></svg>