<svg xmlns="http://www.w3.org/2000/svg" xmlns:xlink="http://www.w3.org/1999/xlink" width="500" zoomAndPan="magnify" viewBox="0 0 375 374.999991" height="500" preserveAspectRatio="xMidYMid meet" version="1.0"><defs><g/><clipPath id="3d0060eec4"><path d="M 62.117188 89.089844 L 304 89.089844 L 304 285.589844 L 62.117188 285.589844 Z M 62.117188 89.089844 " clip-rule="nonzero"/></clipPath><clipPath id="c9df9d1c53"><path d="M 258.972656 201.949219 L 291.222656 201.949219 L 291.222656 231.84375 L 258.972656 231.84375 Z M 258.972656 201.949219 " clip-rule="nonzero"/></clipPath></defs><g clip-path="url(#3d0060eec4)"><path fill="#ffffff" d="M 168.089844 207.777344 C 169.441406 187.621094 171.402344 167.023438 173.898438 164.53125 C 175.085938 163.34375 176.371094 162.273438 177.757812 161.324219 C 179.144531 160.375 180.605469 159.5625 182.144531 158.882812 C 183.679688 158.203125 185.265625 157.671875 186.902344 157.285156 C 188.539062 156.902344 190.195312 156.671875 191.875 156.59375 L 229.894531 154.828125 L 191.882812 153.070312 C 189.363281 152.953125 186.90625 152.496094 184.511719 151.699219 C 182.117188 150.898438 179.878906 149.789062 177.792969 148.367188 C 192.371094 141.433594 206.207031 136.21875 218.121094 133.023438 C 229.175781 130.039062 238.53125 128.773438 245.207031 129.539062 C 249.339844 130.023438 252.339844 131.183594 253.65625 133.585938 C 254.972656 135.984375 254.242188 139.03125 252.457031 142.707031 C 249.539062 148.667969 243.5 155.738281 235.167969 163.367188 C 227.789062 170.007812 220.015625 176.144531 211.84375 181.78125 C 204.144531 187.164062 195.699219 192.589844 186.652344 197.757812 C 180.367188 201.410156 174.148438 204.738281 168.089844 207.777344 Z M 152.386719 162.632812 C 153.121094 163.230469 153.824219 163.863281 154.496094 164.53125 C 157.136719 167.179688 159.1875 190.191406 160.542969 211.445312 C 151.460938 215.789062 142.128906 219.511719 132.550781 222.621094 C 121.785156 226.019531 112.628906 227.699219 106.027344 227.230469 C 101.96875 226.945312 98.953125 226.019531 97.566406 223.734375 C 96.183594 221.445312 96.644531 218.238281 98.292969 214.441406 C 100.96875 208.277344 106.722656 200.808594 114.8125 192.726562 C 124.457031 183.09375 137.332031 172.664062 152.386719 162.632812 Z M 166.207031 242.234375 C 167.6875 241.546875 169.179688 240.847656 170.679688 240.132812 C 180.773438 235.300781 191.179688 229.859375 201.644531 223.769531 C 214.324219 216.515625 226.59375 208.628906 238.457031 200.105469 C 251.453125 190.761719 262.84375 181.378906 272.109375 172.363281 C 284.023438 160.777344 292.449219 149.917969 296.175781 140.742188 C 298.539062 134.910156 299.042969 129.886719 296.871094 125.992188 C 294.699219 122.09375 290.101562 119.742188 283.828125 118.691406 C 273.972656 117.019531 260.160156 118.449219 243.875 122.550781 C 239.738281 123.59375 235.445312 124.808594 231 126.195312 C 238.242188 124.738281 244.355469 124.464844 248.929688 125.328125 C 253.355469 126.164062 256.449219 128.148438 258.160156 130.992188 C 259.871094 133.832031 260.140625 137.585938 258.820312 141.953125 C 257.210938 147.296875 253.132812 153.738281 246.949219 160.796875 C 239.175781 169.628906 228.117188 179.496094 214.625 189.199219 C 207.28125 194.476562 199.195312 199.652344 190.605469 204.675781 C 182.765625 209.144531 175.042969 213.179688 167.527344 216.667969 C 166.910156 226.964844 166.46875 236.386719 166.207031 242.234375 Z M 102.105469 200.75 C 98.828125 203.789062 95.75 206.789062 92.875 209.75 C 81.214844 221.804688 73.066406 233.046875 69.585938 242.417969 C 67.375 248.371094 67.070312 253.460938 69.375 257.320312 C 71.683594 261.183594 76.273438 263.207031 82.484375 264.050781 C 92.285156 265.417969 105.894531 263.566406 121.886719 259.050781 C 134.191406 255.582031 147.851562 250.5 162.265625 244.011719 C 162.042969 238.90625 161.628906 229.816406 161.035156 219.550781 C 147.480469 225.378906 134.917969 229.460938 124.453125 231.550781 C 115.25 233.386719 107.597656 233.679688 102.183594 232.414062 C 97.722656 231.371094 94.609375 229.300781 92.984375 226.339844 C 91.363281 223.382812 91.199219 219.730469 92.695312 215.457031 C 94.191406 211.1875 97.414062 206.15625 102.105469 200.75 Z M 151.808594 162.195312 C 149.601562 160.5 147.191406 159.175781 144.582031 158.21875 C 141.96875 157.261719 139.273438 156.722656 136.492188 156.59375 L 98.476562 154.828125 L 136.492188 153.070312 C 137.332031 153.03125 138.164062 152.953125 138.996094 152.835938 C 139.824219 152.722656 140.648438 152.566406 141.464844 152.375 C 142.28125 152.183594 143.089844 151.953125 143.882812 151.6875 C 144.679688 151.421875 145.460938 151.117188 146.226562 150.777344 C 146.996094 150.441406 147.742188 150.066406 148.476562 149.660156 C 149.210938 149.25 149.921875 148.808594 150.613281 148.335938 C 151.304688 147.863281 151.972656 147.355469 152.617188 146.820312 C 153.265625 146.285156 153.882812 145.71875 154.476562 145.128906 C 155.070312 144.535156 155.632812 143.914062 156.167969 143.269531 C 156.707031 142.625 157.210938 141.957031 157.683594 141.265625 C 158.15625 140.570312 158.597656 139.859375 159.007812 139.125 C 159.414062 138.394531 159.789062 137.644531 160.125 136.875 C 160.464844 136.109375 160.769531 135.328125 161.035156 134.53125 C 161.300781 133.738281 161.53125 132.933594 161.722656 132.117188 C 161.914062 131.300781 162.066406 130.476562 162.183594 129.644531 C 162.300781 128.8125 162.375 127.980469 162.414062 127.140625 L 164.199219 89.132812 L 165.957031 127.140625 C 166.035156 128.820312 166.269531 130.476562 166.652344 132.113281 C 167.039062 133.75 167.570312 135.335938 168.25 136.871094 C 168.929688 138.410156 169.742188 139.871094 170.691406 141.257812 C 171.640625 142.644531 172.710938 143.929688 173.898438 145.121094 C 174.855469 146.074219 175.875 146.953125 176.960938 147.757812 C 178.621094 146.855469 180.265625 145.976562 181.898438 145.121094 C 209.933594 130.128906 236.53125 120.007812 257.460938 115.816406 C 270.480469 113.214844 281.371094 112.941406 289.175781 115.027344 C 294.882812 116.558594 299 119.402344 301.390625 123.394531 C 303.78125 127.390625 304.304688 132.453125 302.914062 138.253906 C 301.050781 146.179688 295.554688 155.71875 286.988281 166.046875 C 276.054688 179.214844 260.117188 193.800781 240.585938 208.042969 C 229.328125 216.183594 217.6875 223.734375 205.664062 230.691406 C 193.625 237.617188 181.265625 243.921875 168.585938 249.601562 C 167.671875 250.007812 166.757812 250.40625 165.84375 250.804688 L 164.222656 285.882812 L 162.65625 252.171875 C 142.808594 260.566406 124.375 266.21875 109.027344 268.835938 C 95.789062 271.101562 84.78125 271.082031 76.957031 268.742188 C 71.226562 267.023438 67.113281 264.074219 64.808594 259.996094 C 62.507812 255.914062 62.121094 250.914062 63.65625 245.1875 C 65.742188 237.414062 71.433594 228.121094 80.230469 218.148438 C 94.324219 202.148438 116.347656 184.199219 143.316406 167.425781 C 146.078125 165.660156 148.914062 163.917969 151.828125 162.195312 Z M 151.808594 162.195312 " fill-opacity="1" fill-rule="evenodd"/></g><path stroke-linecap="butt" transform="matrix(0.838241, 0, 0, 0.838241, 144.755489, 158.16503)" fill="none" stroke-linejoin="miter" d="M 96.675683 31.123376 C 95.711051 32.581974 94.04275 33.201762 92.518911 33.201762 C 90.603627 33.201762 89.937238 31.729184 89.937238 29.650798 C 89.937238 27.721533 90.654887 25.186462 91.260695 23.056815 C 92.518911 18.914023 93.795767 17.283003 94.806999 17.283003 C 95.515328 17.231742 96.018615 17.790949 96.675683 17.790949 C 98.805329 17.790949 100.47363 15.106755 100.524891 11.868015 C 100.524891 9.0813 98.85193 6.905053 95.314946 6.905053 C 89.736856 6.905053 83.096273 10.605139 75.402516 24.482793 C 74.945831 25.298303 74.489145 26.053232 74.032459 26.817482 C 72.163776 25.247042 71.199144 23.122056 71.199144 20.535723 C 71.199144 16.835637 73.473252 15.871005 75.453777 16.071388 C 76.208707 16.169249 76.614132 15.614702 76.567531 14.859772 C 76.567531 12.473822 74.84797 10.097193 70.998761 10.097193 C 66.683547 10.097193 62.838999 13.028369 62.838999 18.359476 C 62.838999 23.415639 66.07774 27.772794 71.297005 30.405727 C 69.022897 33.03866 66.338703 34.720941 63.197824 34.720941 C 60.401789 34.720941 58.225541 33.201762 58.225541 30.960274 C 58.225541 30.61543 57.876037 30.354466 57.470612 30.354466 C 53.411701 30.354466 50.727508 34.464638 50.727508 38.61675 C 50.727508 42.824782 53.509562 47.126016 60.462369 47.126016 C 65.928618 47.126016 71.050022 41.659768 74.535746 35.624992 C 75.141553 34.562499 75.761341 33.397484 76.367149 32.334991 C 78.287093 32.791677 80.360819 33.089921 82.541726 33.201762 C 82.290083 34.772202 82.145621 36.179539 82.145621 37.456395 C 82.145621 41.613167 83.455097 45.00103 87.052662 45.00103 C 93.893628 45.00103 97.332751 35.168307 98.963771 32.386252 C 99.522978 31.42162 97.491193 29.897781 96.675683 31.123376 Z M 83.305975 29.748659 C 81.376711 29.650798 79.65715 29.389834 78.184571 28.947129 C 80.015974 25.643147 81.833397 22.451007 83.865182 19.818074 C 85.333101 18.098513 85.938908 17.739688 86.595977 17.739688 C 86.954801 17.739688 87.201784 17.949391 87.201784 18.457337 C 87.201784 20.535723 85.333101 22.66537 83.305975 29.748659 Z M 104.43002 45.00103 C 110.352954 45.00103 115.767942 40.648535 120.232278 32.386252 C 120.791485 31.42162 118.764359 29.897781 117.958169 31.123376 C 113.19559 38.010942 103.213745 37.605517 103.213745 30.815812 C 103.213745 28.27608 104.527881 25.904111 106.80199 25.904111 C 108.325829 25.904111 108.880376 26.756901 108.880376 27.670273 C 108.880376 29.501676 107.720021 29.702058 107.720021 30.564169 C 107.720021 31.221237 108.582132 31.976167 110.352954 31.976167 C 112.529201 31.976167 115.520959 30.256605 115.520959 25.904111 C 115.520959 22.614109 113.395972 19.668953 108.535531 19.668953 C 100.534211 19.668953 95.65979 28.029097 95.65979 35.117046 C 95.65979 40.387572 98.343984 45.00103 104.43002 45.00103 Z M 143.280926 31.123376 C 142.265034 32.642555 141.300402 33.709708 139.790543 33.709708 C 138.415825 33.709708 137.20421 32.842938 137.20421 30.913673 C 137.20421 28.387922 139.482979 24.529393 139.482979 21.696078 C 139.482979 20.22816 138.923772 19.668953 137.912539 19.668953 C 135.326207 19.668953 133.247821 23.271178 131.169435 29.897781 L 131.122834 30.107483 C 130.265383 32.642555 128.694944 33.644468 126.868201 33.644468 C 125.19524 33.644468 124.738554 32.791677 124.738554 31.370359 C 124.738554 28.387922 127.012663 24.986079 127.012663 21.696078 C 127.012663 20.377281 126.569957 19.668953 125.442223 19.668953 C 122.613568 19.668953 120.288198 23.727863 117.948849 31.123376 C 116.932956 34.413377 116.835095 37.405135 116.835095 38.914994 C 116.835095 43.071766 118.554657 44.949769 121.299431 44.949769 C 125.246501 44.949769 127.781572 40.99338 129.449873 37.405135 C 129.352012 38.160064 129.300751 38.817132 129.300751 39.483521 C 129.300751 43.071766 130.661488 45.00103 133.657906 45.00103 C 140.494211 45.00103 143.933335 35.168307 145.569015 32.386252 C 146.123562 31.42162 144.096437 29.897781 143.280926 31.123376 Z M 166.380836 31.123376 C 165.364943 32.581974 164.153328 33.299623 162.829871 33.495346 C 163.50092 31.42162 163.892364 29.194112 163.892364 26.868743 C 163.892364 21.696078 161.818639 19.668953 158.379515 19.668953 C 157.214501 19.668953 155.644061 20.22816 154.222743 21.696078 C 153.565675 22.353146 152.652304 22.106163 152.848026 21.388514 C 153.467814 19.016544 154.77729 16.220509 156.040166 13.335933 C 157.564005 10.045932 156.906937 8.578014 154.828551 8.578014 C 151.897374 8.578014 149.916849 12.520423 147.134795 20.125638 C 146.011721 23.168656 144.748845 26.868743 143.276266 31.123376 C 140.545472 39.073436 144.39002 45.00103 150.671779 45.00103 C 153.96178 45.00103 157.363623 42.773522 159.898694 39.325079 C 164.712535 39.026835 167.196346 35.42927 168.654944 32.386252 C 169.214151 31.221237 166.986643 30.256605 166.380836 31.123376 Z M 150.019371 31.780444 C 150.019371 29.552936 151.687672 27.064465 154.171483 27.064465 C 156.152008 27.064465 156.958198 28.27608 156.958198 29.748659 C 156.958198 31.878305 155.187375 34.511238 152.652304 34.511238 C 150.72304 34.511238 150.019371 33.248363 150.019371 31.780444 Z M 175.393388 17.590567 C 178.026321 17.590567 180.104707 16.579334 180.412271 13.438455 C 180.659254 10.292915 178.585528 9.328283 175.999196 9.328283 C 173.217141 9.328283 170.938373 10.395436 170.938373 13.993001 C 170.938373 16.677195 172.970158 17.590567 175.393388 17.590567 Z M 169.778018 45.00103 C 176.30676 45.00103 179.550161 35.070445 181.167201 32.334991 C 181.675147 31.42162 179.694622 29.897781 178.893092 31.123376 C 177.8772 32.642555 176.912568 33.644468 175.393388 33.644468 C 174.032651 33.644468 173.11462 32.791677 173.11462 31.123376 C 173.11462 28.387922 175.393388 25.03734 175.393388 21.947721 C 175.393388 20.326021 174.73632 19.668953 173.673827 19.668953 C 170.793911 19.668953 168.715525 23.774464 166.376176 31.123376 C 165.621246 33.546606 165.1133 36.282061 165.1133 38.66801 C 165.1133 42.218975 166.376176 45.00103 169.778018 45.00103 Z M 169.778018 45.00103 " stroke="#000000" stroke-width="11.273341" stroke-opacity="1" stroke-miterlimit="4"/><g fill="#ffffff" fill-opacity="1"><g transform="translate(188.553559, 195.885856)"><g><path d="M 37.242188 -11.636719 C 36.433594 -10.402344 35.035156 -9.894531 33.761719 -9.894531 C 32.144531 -9.894531 31.59375 -11.125 31.59375 -12.867188 C 31.59375 -14.480469 32.1875 -16.605469 32.699219 -18.386719 C 33.761719 -21.871094 34.820312 -23.226562 35.671875 -23.226562 C 36.265625 -23.269531 36.691406 -22.804688 37.242188 -22.804688 C 39.027344 -22.804688 40.425781 -25.054688 40.46875 -27.773438 C 40.46875 -30.109375 39.066406 -31.933594 36.09375 -31.933594 C 31.425781 -31.933594 25.863281 -28.832031 19.40625 -17.199219 C 19.023438 -16.519531 18.640625 -15.882812 18.261719 -15.246094 C 16.6875 -16.5625 15.882812 -18.34375 15.882812 -20.511719 C 15.882812 -23.609375 17.792969 -24.417969 19.449219 -24.246094 C 20.085938 -24.164062 20.425781 -24.628906 20.382812 -25.265625 C 20.382812 -27.261719 18.941406 -29.257812 15.710938 -29.257812 C 12.101562 -29.257812 8.875 -26.796875 8.875 -22.335938 C 8.875 -18.089844 11.59375 -14.4375 15.96875 -12.230469 C 14.054688 -10.023438 11.804688 -8.621094 9.171875 -8.621094 C 6.835938 -8.621094 5.011719 -9.894531 5.011719 -11.761719 C 5.011719 -12.058594 4.714844 -12.273438 4.375 -12.273438 C 0.976562 -12.273438 -1.273438 -8.832031 -1.273438 -5.351562 C -1.273438 -1.824219 1.0625 1.785156 6.878906 1.785156 C 11.464844 1.785156 15.753906 -2.800781 18.683594 -7.855469 C 19.195312 -8.746094 19.703125 -9.722656 20.214844 -10.617188 C 21.828125 -10.234375 23.566406 -9.980469 25.394531 -9.894531 C 25.183594 -8.578125 25.054688 -7.390625 25.054688 -6.328125 C 25.054688 -2.84375 26.160156 0 29.171875 0 C 34.90625 0 37.792969 -8.238281 39.152344 -10.574219 C 39.621094 -11.378906 37.921875 -12.65625 37.242188 -11.636719 Z M 26.03125 -12.78125 C 24.417969 -12.867188 22.972656 -13.078125 21.742188 -13.460938 C 23.269531 -16.222656 24.800781 -18.898438 26.5 -21.105469 C 27.730469 -22.550781 28.238281 -22.847656 28.792969 -22.847656 C 29.089844 -22.847656 29.300781 -22.675781 29.300781 -22.25 C 29.300781 -20.511719 27.730469 -18.726562 26.03125 -12.78125 Z M 26.03125 -12.78125 "/></g></g></g><g fill="#ffffff" fill-opacity="1"><g transform="translate(224.816264, 195.885856)"><g><path d="M 7.472656 0 C 12.441406 0 16.984375 -3.652344 20.722656 -10.574219 C 21.191406 -11.378906 19.492188 -12.65625 18.8125 -11.636719 C 14.820312 -5.859375 6.453125 -6.199219 6.453125 -11.890625 C 6.453125 -14.011719 7.558594 -16.007812 9.46875 -16.007812 C 10.742188 -16.007812 11.210938 -15.289062 11.210938 -14.523438 C 11.210938 -12.996094 10.234375 -12.824219 10.234375 -12.101562 C 10.234375 -11.550781 10.957031 -10.914062 12.441406 -10.914062 C 14.269531 -10.914062 16.773438 -12.355469 16.773438 -16.007812 C 16.773438 -18.769531 14.992188 -21.234375 10.914062 -21.234375 C 4.203125 -21.234375 0.128906 -14.226562 0.128906 -8.28125 C 0.128906 -3.863281 2.378906 0 7.472656 0 Z M 7.472656 0 "/></g></g></g><g fill="#ffffff" fill-opacity="1"><g transform="translate(242.650377, 195.885856)"><g><path d="M 22.210938 -11.636719 C 21.359375 -10.363281 20.554688 -9.46875 19.277344 -9.46875 C 18.132812 -9.46875 17.113281 -10.191406 17.113281 -11.804688 C 17.113281 -13.929688 19.023438 -17.15625 19.023438 -19.535156 C 19.023438 -20.765625 18.558594 -21.234375 17.707031 -21.234375 C 15.542969 -21.234375 13.800781 -18.21875 12.058594 -12.65625 L 12.019531 -12.484375 C 11.296875 -10.363281 9.980469 -9.511719 8.449219 -9.511719 C 7.050781 -9.511719 6.667969 -10.234375 6.667969 -11.421875 C 6.667969 -13.929688 8.578125 -16.773438 8.578125 -19.535156 C 8.578125 -20.636719 8.195312 -21.234375 7.261719 -21.234375 C 4.882812 -21.234375 2.929688 -17.835938 0.976562 -11.636719 C 0.128906 -8.875 0.0429688 -6.371094 0.0429688 -5.097656 C 0.0429688 -1.613281 1.484375 -0.0429688 3.78125 -0.0429688 C 7.089844 -0.0429688 9.214844 -3.355469 10.617188 -6.371094 C 10.53125 -5.734375 10.488281 -5.179688 10.488281 -4.628906 C 10.488281 -1.613281 11.636719 0 14.140625 0 C 19.875 0 22.761719 -8.238281 24.121094 -10.574219 C 24.585938 -11.378906 22.890625 -12.65625 22.210938 -11.636719 Z M 22.210938 -11.636719 "/></g></g></g><g fill="#ffffff" fill-opacity="1"><g transform="translate(263.881465, 195.885856)"><g><path d="M 20.339844 -11.636719 C 19.492188 -10.402344 18.472656 -9.808594 17.367188 -9.640625 C 17.921875 -11.378906 18.261719 -13.25 18.261719 -15.203125 C 18.261719 -19.535156 16.519531 -21.234375 13.632812 -21.234375 C 12.65625 -21.234375 11.339844 -20.765625 10.148438 -19.535156 C 9.597656 -18.980469 8.832031 -19.195312 9.003906 -19.789062 C 9.511719 -21.785156 10.617188 -24.121094 11.679688 -26.539062 C 12.953125 -29.300781 12.398438 -30.53125 10.660156 -30.53125 C 8.195312 -30.53125 6.539062 -27.21875 4.203125 -20.851562 C 3.269531 -18.300781 2.207031 -15.203125 0.976562 -11.636719 C -1.316406 -4.96875 1.910156 0 7.175781 0 C 9.9375 0 12.78125 -1.867188 14.90625 -4.757812 C 18.941406 -5.011719 21.019531 -8.027344 22.25 -10.574219 C 22.71875 -11.550781 20.851562 -12.355469 20.339844 -11.636719 Z M 6.625 -11.082031 C 6.625 -12.953125 8.027344 -15.03125 10.105469 -15.03125 C 11.761719 -15.03125 12.441406 -14.011719 12.441406 -12.78125 C 12.441406 -11 10.957031 -8.789062 8.832031 -8.789062 C 7.21875 -8.789062 6.625 -9.851562 6.625 -11.082031 Z M 6.625 -11.082031 "/></g></g></g><g fill="#ffffff" fill-opacity="1"><g transform="translate(283.244226, 195.885856)"><g><path d="M 8.535156 -22.972656 C 10.742188 -22.972656 12.484375 -23.824219 12.738281 -26.457031 C 12.953125 -29.089844 11.210938 -29.894531 9.046875 -29.894531 C 6.710938 -29.894531 4.796875 -29.003906 4.796875 -25.988281 C 4.796875 -23.738281 6.496094 -22.972656 8.535156 -22.972656 Z M 3.820312 0 C 9.300781 0 12.019531 -8.324219 13.375 -10.617188 C 13.800781 -11.378906 12.144531 -12.65625 11.464844 -11.636719 C 10.617188 -10.363281 9.808594 -9.511719 8.535156 -9.511719 C 7.390625 -9.511719 6.625 -10.234375 6.625 -11.636719 C 6.625 -13.929688 8.535156 -16.730469 8.535156 -19.320312 C 8.535156 -20.679688 7.984375 -21.234375 7.089844 -21.234375 C 4.671875 -21.234375 2.929688 -17.792969 0.976562 -11.636719 C 0.339844 -9.597656 -0.0859375 -7.304688 -0.0859375 -5.308594 C -0.0859375 -2.335938 0.976562 0 3.820312 0 Z M 3.820312 0 "/></g></g></g><path stroke-linecap="butt" transform="matrix(0.755047, -0.329038, 0.329038, 0.755047, 169.813498, 254.702443)" fill="none" stroke-linejoin="miter" d="M 4.760842 15.878555 C 7.842879 15.88172 10.046146 13.639464 10.044625 10.508822 C 10.045714 7.870802 7.382772 6.027427 7.443351 4.155145 C 7.443476 3.110149 8.054448 2.693497 8.742603 2.693321 C 9.942666 2.693765 9.812822 4.17889 9.416788 4.684035 C 9.124304 5.058406 10.042393 5.753386 10.295526 5.398081 C 11.4282 4.805245 12.165184 3.636438 12.166626 2.374728 C 12.163362 0.862638 11.217554 -0.599755 8.764477 -0.597852 C 5.975739 -0.597366 4.71777 1.244595 4.719736 3.175174 C 4.71741 5.709185 6.834082 7.262768 6.834234 8.876972 C 6.835445 9.907031 6.123055 10.615765 5.114178 10.61586 C 4.022472 10.616074 3.375385 9.904681 3.372938 8.770614 C 3.373721 7.617261 4.110699 7.576279 4.112995 7.096142 C 4.111181 6.779767 3.773048 6.570331 3.25055 6.570269 C 2.010021 6.567711 -0.0797579 7.659168 -0.0804512 10.949223 C -0.0820417 14.181979 2.012571 15.881155 4.760842 15.878555 Z M 4.760842 15.878555 " stroke="#000000" stroke-width="4.667939" stroke-opacity="1" stroke-miterlimit="4"/><path stroke-linecap="butt" transform="matrix(0.747439, -0.345972, 0.345972, 0.747439, 178.38175, 251.028735)" fill="none" stroke-linejoin="miter" d="M 2.119892 15.001222 C 5.141533 14.999255 6.753848 10.974059 7.38189 9.775305 C 7.592672 9.376384 6.772182 8.766646 6.436753 9.254204 C 6.019324 9.907626 5.345794 10.301398 4.509726 10.301139 C 3.27252 10.298118 2.620976 9.379844 3.062817 7.917211 C 3.459551 6.506866 3.583483 6.464935 5.533539 6.463442 C 6.373911 6.465694 6.625471 4.533474 6.061026 4.533513 L 4.972543 4.536619 C 4.571406 4.533858 4.63275 4.175516 4.952147 3.508073 C 5.601859 2.183469 5.325648 1.538226 4.553181 1.536049 C 4.02484 1.537122 3.561549 1.725091 3.061349 2.941211 C 2.770014 3.694809 2.099306 4.534113 0.881308 4.534757 C 0.399673 4.536544 0.420748 6.150736 1.634442 6.1481 C 1.109471 7.598384 0.652312 8.834427 0.291418 9.885077 C -0.652615 12.568133 -0.231301 14.999954 2.119892 15.001222 Z M 2.119892 15.001222 " stroke="#000000" stroke-width="4.667939" stroke-opacity="1" stroke-miterlimit="4"/><path stroke-linecap="butt" transform="matrix(0.739222, -0.363198, 0.363198, 0.739222, 184.589904, 248.190334)" fill="none" stroke-linejoin="miter" d="M 8.764418 9.253708 C 8.342491 9.886604 7.946792 10.326299 7.323199 10.3264 C 6.372947 10.324533 6.022051 9.887916 6.022172 9.296137 C 6.021602 7.995926 6.923304 7.117887 6.921307 5.917376 C 6.921919 4.786843 4.901805 3.445548 2.931325 3.444423 C 1.800791 3.443812 1.067708 4.473393 1.067342 5.334549 C 1.068329 6.085401 1.341718 6.357114 1.760596 6.504793 C 1.400405 7.474509 0.878582 8.687152 0.481678 9.258362 C 0.208685 9.652661 1.150893 10.326962 1.427035 9.775683 C 1.759498 9.088262 2.451612 7.658084 2.829717 6.823992 C 3.669714 7.136303 3.94271 7.656185 3.944187 7.868281 C 3.940598 8.875814 2.473841 10.850138 2.472569 12.799408 C 2.471514 13.866313 3.060591 15.001225 4.782903 15.001957 C 7.610283 15.001357 9.034859 10.92959 9.705592 9.779542 C 9.944606 9.379117 9.102393 8.748661 8.764418 9.253708 Z M 8.764418 9.253708 " stroke="#000000" stroke-width="4.667939" stroke-opacity="1" stroke-miterlimit="4"/><path stroke-linecap="butt" transform="matrix(0.729303, -0.382726, 0.382726, 0.729303, 193.303468, 243.836936)" fill="none" stroke-linejoin="miter" d="M 3.939602 15.001152 C 6.372939 14.99801 8.597586 13.198166 10.444554 9.780745 C 10.677332 9.378002 9.834759 8.748368 9.498068 9.257264 C 8.553281 10.700378 6.854405 11.437103 5.430977 11.434614 C 4.234413 11.438701 3.251208 11.056635 3.248565 10.326813 C 3.249777 10.04893 3.458888 9.987271 3.607869 10.07081 C 4.090405 10.345461 4.653529 10.40531 5.241104 10.408359 C 7.292523 10.408327 8.618237 8.68842 8.618608 7.156758 C 8.616064 5.773539 7.760366 4.515705 5.810778 4.515616 C -0.20984 4.516216 -1.951575 15.00005 3.939602 15.001152 Z M 4.701344 8.834272 C 4.024537 8.837956 3.709948 8.437195 3.7105 7.976856 C 3.708934 7.408283 4.210951 6.798683 5.032001 6.795709 C 5.683194 6.800008 5.993583 7.198565 5.993032 7.658904 C 5.99543 8.185065 5.513786 8.837494 4.701344 8.834272 Z M 4.701344 8.834272 " stroke="#000000" stroke-width="4.667939" stroke-opacity="1" stroke-miterlimit="4"/><path stroke-linecap="butt" transform="matrix(0.719103, -0.401563, 0.401563, 0.719103, 201.541222, 239.486351)" fill="none" stroke-linejoin="miter" d="M 3.940148 15.001001 C 6.373335 15.001716 8.598108 13.196662 10.442224 9.777556 C 10.674802 9.380518 9.833185 8.747578 9.495797 9.254483 C 8.552896 10.699804 6.854689 11.435444 5.432185 11.434175 C 4.234467 11.438926 3.251797 11.058578 3.253399 10.326138 C 3.251244 10.047896 3.460058 9.985243 3.609129 10.068487 C 4.088984 10.347313 4.653158 10.40705 5.243251 10.410644 C 7.294568 10.404535 8.617182 8.687797 8.615007 7.154727 C 8.614341 5.774598 7.758893 4.514674 5.809859 4.512715 C -0.209543 4.51383 -1.951641 14.997328 3.940148 15.001001 Z M 4.699435 8.835852 C 4.026418 8.83484 3.711279 8.436144 3.713208 7.975491 C 3.709381 7.408415 4.21283 6.798685 5.032336 6.800017 C 5.684165 6.800061 5.995162 7.196445 5.993233 7.657097 C 5.996683 8.185938 5.514799 8.834871 4.699435 8.835852 Z M 4.699435 8.835852 " stroke="#000000" stroke-width="4.667939" stroke-opacity="1" stroke-miterlimit="4"/><path stroke-linecap="butt" transform="matrix(0.709851, -0.417701, 0.417701, 0.709851, 209.688185, 234.895883)" fill="none" stroke-linejoin="miter" d="M 2.117113 15.001176 C 5.138092 15.001385 6.752461 10.976699 7.380738 9.778068 C 7.592888 9.380127 6.773469 8.771385 6.43434 9.254191 C 6.021843 9.908439 5.34439 10.302222 4.50901 10.300414 C 3.271811 10.298787 2.620525 9.376261 3.06272 7.914051 C 3.46066 6.508344 3.584747 6.4658 5.534449 6.462964 C 6.373917 6.467177 6.625011 4.534826 6.063762 4.534743 L 4.973006 4.536745 C 4.571187 4.536925 4.634002 4.177678 4.951999 3.506343 C 5.601213 2.187962 5.324774 1.535536 4.548789 1.535661 C 4.025775 1.536064 3.562127 1.725483 3.060093 2.94337 C 2.770459 3.69743 2.100876 4.536077 0.88075 4.533491 C 0.400057 4.536786 0.419535 6.149597 1.631486 6.147372 C 1.109459 7.595624 0.6483 8.837564 0.289608 9.886665 C -0.650533 12.569168 -0.232003 15.000105 2.117113 15.001176 Z M 2.117113 15.001176 " stroke="#000000" stroke-width="4.667939" stroke-opacity="1" stroke-miterlimit="4"/><path stroke-linecap="butt" transform="matrix(0.698738, -0.436036, 0.436036, 0.698738, 215.56171, 231.479164)" fill="none" stroke-linejoin="miter" d="M 14.658454 9.255459 C 14.156736 9.987782 13.587851 10.281268 12.978543 10.281189 C 12.857383 10.278257 12.750805 10.278834 12.622596 10.260322 C 14.345633 6.90793 14.573688 4.473054 12.935294 4.473689 C 11.492963 4.473686 10.841513 6.046174 10.844301 7.887167 C 10.844253 8.541218 10.923101 9.149466 11.051231 9.777286 C 10.652427 10.299899 10.126319 10.659213 9.372224 10.658229 C 8.618129 10.657245 8.24375 10.155278 8.242192 9.360464 C 8.243473 8.310262 9.373667 6.94708 9.374979 5.94162 C 9.374841 5.019112 8.975322 4.512638 8.052813 4.512776 C 7.110702 4.517453 6.542299 4.783289 6.16514 6.068527 C 5.849177 7.157156 6.082434 7.867351 5.850873 8.874479 C 5.639852 9.777024 5.113602 10.656161 4.088539 10.659387 C 3.334444 10.658403 2.960065 10.156437 2.961018 9.357599 C 2.958151 8.125914 3.899658 6.527586 3.899848 5.353712 C 3.899927 4.744404 3.66801 4.515824 3.250742 4.512595 C 2.097985 4.514401 0.961067 7.052969 0.44177 9.255787 C -0.208964 11.857361 0.314033 14.978947 2.561735 14.978391 C 3.711982 14.980608 5.221093 14.138996 6.33217 11.310371 C 6.082343 14.245981 6.96112 14.978853 7.842909 14.981256 C 9.057502 14.978904 10.253772 13.930887 11.285404 12.528561 C 11.493086 12.607848 11.70225 12.648926 11.936523 12.649769 C 13.967045 12.647855 14.993016 11.057512 15.601937 9.777139 C 15.828335 9.297881 14.90957 8.897844 14.658454 9.255459 Z M 14.658454 9.255459 " stroke="#000000" stroke-width="4.667939" stroke-opacity="1" stroke-miterlimit="4"/><path stroke-linecap="butt" transform="matrix(0.685595, -0.456424, 0.456424, 0.685595, 225.551049, 225.161469)" fill="none" stroke-linejoin="miter" d="M 3.944663 14.999388 C 6.372889 14.99782 8.597381 13.196916 10.445939 9.778315 C 10.673244 9.376972 9.832298 8.748754 9.495882 9.254085 C 8.554991 10.701632 6.855972 11.439353 5.432709 11.437641 C 4.231748 11.435786 3.252847 11.057584 3.249744 10.326224 C 3.252195 10.048673 3.462621 9.989344 3.608682 10.069489 C 4.091612 10.345411 4.654642 10.406871 5.242625 10.405176 C 7.295966 10.410426 8.615512 8.685086 8.617157 7.159221 C 8.616263 5.774107 7.761756 4.515822 5.808387 4.514453 C -0.208249 4.514393 -1.952272 14.999252 3.944663 14.999388 Z M 4.69835 8.834941 C 4.024867 8.836691 3.711542 8.434381 3.708616 7.976624 C 3.710879 7.408371 4.214283 6.7977 5.035091 6.79717 C 5.68227 6.800698 5.994275 7.196432 5.994574 7.658137 C 5.994916 8.188242 5.512583 8.83573 4.69835 8.834941 Z M 4.69835 8.834941 " stroke="#000000" stroke-width="4.667939" stroke-opacity="1" stroke-miterlimit="4"/><path stroke-linecap="butt" transform="matrix(0.672381, -0.475675, 0.475675, 0.672381, 233.2712, 219.989986)" fill="none" stroke-linejoin="miter" d="M 2.219551 14.999435 C 3.713122 14.998716 4.970617 13.640021 5.808639 11.938095 L 5.894107 11.940463 C 5.640666 13.678328 6.251484 14.999316 7.697646 14.999915 C 10.021534 14.999836 11.175502 11.726264 12.205921 9.777016 C 12.413063 9.377458 11.573829 8.748885 11.262415 9.254773 C 10.843703 9.928756 10.316786 10.328664 9.604991 10.324729 C 8.682594 10.322854 8.454406 9.487511 9.165297 7.957076 C 9.626744 6.738178 10.17512 6.086211 10.172073 5.293953 C 10.170509 4.828079 9.984395 4.516316 9.433053 4.515512 C 8.452765 4.513348 8.304234 5.314566 7.613405 5.313844 C 7.065935 5.315779 7.149963 4.515406 5.472234 4.513654 C 1.869248 4.515132 0.0615606 8.918056 0.0610215 11.834084 C 0.060669 13.69871 0.797094 14.998177 2.219551 14.999435 Z M 4.32028 10.658584 C 3.670249 10.657677 3.271371 10.236061 3.272566 9.528138 C 3.27057 8.603002 3.962245 7.576026 5.054445 7.576027 C 5.72157 7.577408 6.144153 7.998365 6.143431 8.689194 C 6.14411 9.566921 5.412481 10.658585 4.32028 10.658584 Z M 4.32028 10.658584 " stroke="#000000" stroke-width="4.667939" stroke-opacity="1" stroke-miterlimit="4"/><path stroke-linecap="butt" transform="matrix(0.658337, -0.49493, 0.49493, 0.658337, 242.21407, 213.560494)" fill="none" stroke-linejoin="miter" d="M 8.765624 9.257086 C 8.346596 9.885494 7.944857 10.325161 7.32166 10.325397 C 6.373113 10.324313 6.019805 9.886628 6.020483 9.293786 C 6.022915 7.996175 6.921247 7.116949 6.920721 5.917983 C 6.922963 4.786368 4.904087 3.446606 2.935852 3.444356 C 1.801386 3.445905 1.069828 4.474243 1.069793 5.334577 C 1.067985 6.086773 1.33991 6.356472 1.760893 6.506824 C 1.403136 7.472037 0.880993 8.687479 0.483851 9.255205 C 0.208317 9.653281 1.150405 10.32593 1.42801 9.775141 C 1.760788 9.087824 2.45202 7.655357 2.832388 6.825813 C 3.672446 7.136948 3.943132 7.660856 3.941947 7.867639 C 3.94269 8.876895 2.473983 10.846299 2.472701 12.797461 C 2.472422 13.871218 3.05923 15.000661 4.779897 15.000731 C 7.611315 14.999226 9.03689 10.932532 9.706934 9.780812 C 9.944531 9.37795 9.100094 8.749046 8.765624 9.257086 Z M 8.765624 9.257086 " stroke="#000000" stroke-width="4.667939" stroke-opacity="1" stroke-miterlimit="4"/><g fill="#ffffff" fill-opacity="1"><g transform="translate(174.749074, 266.028149)"><g><path d="M 3.882812 -0.902344 C 6.210938 -1.914062 7.136719 -4.335938 6.109375 -6.695312 C 5.238281 -8.6875 2.621094 -9.207031 2.054688 -10.636719 C 1.707031 -11.425781 2.03125 -11.945312 2.550781 -12.171875 C 3.453125 -12.566406 3.851562 -11.398438 3.714844 -10.886719 C 3.617188 -10.507812 4.542969 -10.289062 4.613281 -10.640625 C 5.277344 -11.457031 5.445312 -12.582031 5.03125 -13.535156 C 4.53125 -14.671875 3.335938 -15.472656 1.484375 -14.664062 C -0.621094 -13.746094 -0.964844 -11.9375 -0.328125 -10.484375 C 0.503906 -8.566406 2.617188 -8.09375 3.148438 -6.871094 C 3.484375 -6.097656 3.179688 -5.324219 2.421875 -4.992188 C 1.597656 -4.632812 0.871094 -4.957031 0.5 -5.8125 C 0.121094 -6.683594 0.660156 -6.957031 0.503906 -7.320312 C 0.398438 -7.558594 0.078125 -7.605469 -0.320312 -7.433594 C -1.253906 -7.027344 -2.476562 -5.515625 -1.394531 -3.027344 C -0.332031 -0.589844 1.808594 0.00390625 3.882812 -0.902344 Z M 3.882812 -0.902344 "/></g></g></g><g fill="#ffffff" fill-opacity="1"><g transform="translate(183.571337, 262.240323)"><g><path d="M 1.582031 -0.734375 C 3.839844 -1.777344 3.652344 -5.34375 3.710938 -6.457031 C 3.730469 -6.828125 2.90625 -7 2.824219 -6.523438 C 2.734375 -5.890625 2.371094 -5.359375 1.746094 -5.070312 C 0.820312 -4.644531 0.015625 -5.109375 -0.164062 -6.355469 C -0.351562 -7.546875 -0.273438 -7.621094 1.183594 -8.292969 C 1.8125 -8.585938 1.332031 -10.113281 0.910156 -9.917969 L 0.09375 -9.539062 C -0.203125 -9.402344 -0.28125 -9.691406 -0.277344 -10.300781 C -0.246094 -11.515625 -0.675781 -11.90625 -1.257812 -11.636719 C -1.648438 -11.457031 -1.929688 -11.15625 -1.882812 -10.070312 C -1.839844 -9.40625 -2.054688 -8.546875 -2.960938 -8.125 C -3.324219 -7.960938 -2.75 -6.757812 -1.839844 -7.179688 C -1.730469 -5.917969 -1.648438 -4.832031 -1.550781 -3.925781 C -1.328125 -1.59375 -0.171875 0.078125 1.582031 -0.734375 Z M 1.582031 -0.734375 "/></g></g></g><g fill="#ffffff" fill-opacity="1"><g transform="translate(190.03788, 259.278665)"><g><path d="M 4.394531 -7.429688 C 4.3125 -6.8125 4.175781 -6.34375 3.710938 -6.113281 C 3.015625 -5.773438 2.589844 -5.96875 2.378906 -6.402344 C 1.90625 -7.363281 2.25 -8.34375 1.816406 -9.226562 C 1.40625 -10.0625 -0.570312 -10.324219 -2.027344 -9.609375 C -2.863281 -9.195312 -3.03125 -8.171875 -2.71875 -7.535156 C -2.445312 -6.976562 -2.144531 -6.875 -1.78125 -6.917969 C -1.695312 -6.074219 -1.640625 -4.984375 -1.730469 -4.421875 C -1.789062 -4.027344 -0.847656 -3.875 -0.84375 -4.378906 C -0.84375 -5.011719 -0.851562 -6.316406 -0.878906 -7.074219 C -0.144531 -7.144531 0.25 -6.855469 0.324219 -6.703125 C 0.691406 -5.957031 0.320312 -3.96875 1.03125 -2.527344 C 1.417969 -1.734375 2.261719 -1.113281 3.535156 -1.738281 C 5.628906 -2.765625 5.203125 -6.289062 5.28125 -7.386719 C 5.304688 -7.765625 4.457031 -7.925781 4.394531 -7.429688 Z M 4.394531 -7.429688 "/></g></g></g><g fill="#ffffff" fill-opacity="1"><g transform="translate(199.044364, 254.776481)"><g><path d="M 2.875 -1.507812 C 4.648438 -2.441406 5.582031 -4.605469 5.617188 -7.804688 C 5.632812 -8.183594 4.78125 -8.320312 4.730469 -7.824219 C 4.59375 -6.410156 3.636719 -5.222656 2.597656 -4.679688 C 1.726562 -4.222656 0.863281 -4.121094 0.582031 -4.65625 C 0.476562 -4.851562 0.605469 -4.980469 0.746094 -4.972656 C 1.199219 -4.960938 1.636719 -5.132812 2.066406 -5.355469 C 3.566406 -6.140625 3.871094 -7.902344 3.285156 -9.019531 C 2.753906 -10.027344 1.644531 -10.617188 0.222656 -9.871094 C -4.164062 -7.566406 -1.421875 0.746094 2.875 -1.507812 Z M 1.066406 -6.292969 C 0.578125 -6.039062 0.195312 -6.207031 0.0195312 -6.542969 C -0.199219 -6.957031 -0.0625 -7.59375 0.53125 -7.90625 C 1.007812 -8.15625 1.386719 -7.984375 1.566406 -7.648438 C 1.765625 -7.265625 1.664062 -6.605469 1.066406 -6.292969 Z M 1.066406 -6.292969 "/></g></g></g><g fill="#ffffff" fill-opacity="1"><g transform="translate(207.564661, 250.272903)"><g><path d="M 2.835938 -1.582031 C 4.585938 -2.558594 5.457031 -4.75 5.414062 -7.949219 C 5.417969 -8.328125 4.5625 -8.441406 4.523438 -7.945312 C 4.425781 -6.527344 3.5 -5.316406 2.472656 -4.746094 C 1.613281 -4.265625 0.753906 -4.140625 0.460938 -4.667969 C 0.351562 -4.863281 0.476562 -4.992188 0.613281 -4.992188 C 1.070312 -4.988281 1.503906 -5.171875 1.925781 -5.40625 C 3.402344 -6.234375 3.664062 -8 3.046875 -9.101562 C 2.492188 -10.097656 1.367188 -10.65625 -0.0351562 -9.871094 C -4.359375 -7.457031 -1.402344 0.78125 2.835938 -1.582031 Z M 0.902344 -6.320312 C 0.417969 -6.050781 0.0351562 -6.210938 -0.152344 -6.542969 C -0.378906 -6.949219 -0.261719 -7.589844 0.328125 -7.917969 C 0.792969 -8.179688 1.179688 -8.019531 1.367188 -7.6875 C 1.574219 -7.308594 1.488281 -6.648438 0.902344 -6.320312 Z M 0.902344 -6.320312 "/></g></g></g><g fill="#ffffff" fill-opacity="1"><g transform="translate(215.953706, 245.543643)"><g><path d="M 1.503906 -0.882812 C 3.648438 -2.144531 3.113281 -5.679688 3.058594 -6.789062 C 3.042969 -7.160156 2.207031 -7.25 2.167969 -6.769531 C 2.144531 -6.132812 1.832031 -5.566406 1.238281 -5.21875 C 0.359375 -4.699219 -0.488281 -5.085938 -0.789062 -6.308594 C -1.089844 -7.472656 -1.019531 -7.554688 0.363281 -8.371094 C 0.960938 -8.722656 0.332031 -10.195312 -0.0703125 -9.960938 L -0.84375 -9.503906 C -1.125 -9.335938 -1.230469 -9.617188 -1.285156 -10.222656 C -1.378906 -11.433594 -1.84375 -11.78125 -2.394531 -11.457031 C -2.765625 -11.238281 -3.015625 -10.910156 -2.863281 -9.839844 C -2.757812 -9.179688 -2.882812 -8.304688 -3.746094 -7.796875 C -4.089844 -7.59375 -3.398438 -6.457031 -2.535156 -6.964844 C -2.304688 -5.71875 -2.113281 -4.648438 -1.929688 -3.753906 C -1.476562 -1.457031 -0.164062 0.0976562 1.503906 -0.882812 Z M 1.503906 -0.882812 "/></g></g></g><g fill="#ffffff" fill-opacity="1"><g transform="translate(222.102253, 241.960234)"><g><path d="M 7.738281 -10.40625 C 7.707031 -9.675781 7.4375 -9.222656 7.011719 -8.957031 C 6.925781 -8.902344 6.851562 -8.855469 6.753906 -8.816406 C 6.492188 -11.910156 5.59375 -13.710938 4.449219 -12.996094 C 3.441406 -12.367188 3.671875 -10.984375 4.476562 -9.695312 C 4.757812 -9.242188 5.082031 -8.851562 5.445312 -8.46875 C 5.394531 -7.925781 5.183594 -7.449219 4.65625 -7.121094 C 4.128906 -6.792969 3.644531 -6.976562 3.296875 -7.535156 C 2.839844 -8.269531 3.039062 -9.714844 2.601562 -10.417969 C 2.199219 -11.0625 1.699219 -11.238281 1.054688 -10.835938 C 0.394531 -10.425781 0.117188 -9.988281 0.414062 -8.929688 C 0.667969 -8.03125 1.140625 -7.632812 1.417969 -6.828125 C 1.664062 -6.109375 1.683594 -5.265625 0.964844 -4.816406 C 0.4375 -4.488281 -0.046875 -4.675781 -0.394531 -5.230469 C -0.933594 -6.09375 -0.96875 -7.621094 -1.480469 -8.441406 C -1.746094 -8.867188 -2.007812 -8.925781 -2.300781 -8.742188 C -3.105469 -8.242188 -2.792969 -5.972656 -2.199219 -4.207031 C -1.519531 -2.105469 0.210938 -0.152344 1.777344 -1.128906 C 2.585938 -1.632812 3.273438 -2.878906 2.816406 -5.339844 C 3.921875 -3.179688 4.855469 -3.050781 5.472656 -3.433594 C 6.320312 -3.964844 6.699219 -5.21875 6.804688 -6.648438 C 6.988281 -6.679688 7.152344 -6.742188 7.3125 -6.84375 C 8.734375 -7.730469 8.757812 -9.292969 8.625 -10.453125 C 8.574219 -10.890625 7.757812 -10.765625 7.738281 -10.40625 Z M 7.738281 -10.40625 "/></g></g></g><g fill="#ffffff" fill-opacity="1"><g transform="translate(232.397402, 235.445388)"><g><path d="M 2.703125 -1.800781 C 4.371094 -2.910156 5.070312 -5.160156 4.777344 -8.347656 C 4.753906 -8.726562 3.890625 -8.773438 3.890625 -8.273438 C 3.902344 -6.851562 3.074219 -5.574219 2.097656 -4.921875 C 1.277344 -4.378906 0.429688 -4.1875 0.09375 -4.691406 C -0.03125 -4.875 0.0859375 -5.015625 0.222656 -5.023438 C 0.679688 -5.058594 1.09375 -5.273438 1.5 -5.542969 C 2.90625 -6.480469 3.027344 -8.261719 2.328125 -9.3125 C 1.699219 -10.257812 0.535156 -10.730469 -0.804688 -9.839844 C -4.929688 -7.09375 -1.335938 0.890625 2.703125 -1.800781 Z M 0.40625 -6.371094 C -0.0546875 -6.066406 -0.449219 -6.195312 -0.660156 -6.511719 C -0.921875 -6.898438 -0.851562 -7.546875 -0.292969 -7.917969 C 0.152344 -8.214844 0.550781 -8.085938 0.761719 -7.769531 C 1 -7.410156 0.96875 -6.742188 0.40625 -6.371094 Z M 0.40625 -6.371094 "/></g></g></g><g fill="#ffffff" fill-opacity="1"><g transform="translate(240.406323, 230.075696)"><g><path d="M 1.496094 -1.058594 C 2.496094 -1.765625 2.691406 -3.28125 2.449219 -4.820312 L 2.503906 -4.863281 C 3.164062 -3.570312 4.203125 -2.972656 5.175781 -3.660156 C 6.738281 -4.769531 5.960938 -7.515625 5.722656 -9.316406 C 5.671875 -9.683594 4.8125 -9.707031 4.839844 -9.21875 C 4.875 -8.570312 4.710938 -8.050781 4.234375 -7.710938 C 3.613281 -7.273438 3.058594 -7.726562 2.808594 -9.097656 C 2.542969 -10.132812 2.597656 -10.832031 2.21875 -11.367188 C 2 -11.675781 1.722656 -11.796875 1.359375 -11.539062 C 0.695312 -11.070312 0.976562 -10.464844 0.511719 -10.136719 C 0.144531 -9.875 -0.179688 -10.453125 -1.308594 -9.652344 C -3.734375 -7.9375 -2.851562 -4.117188 -1.464844 -2.160156 C -0.574219 -0.902344 0.535156 -0.378906 1.496094 -1.058594 Z M 0.839844 -4.972656 C 0.402344 -4.664062 -0.0664062 -4.757812 -0.402344 -5.234375 C -0.84375 -5.855469 -0.867188 -6.875 -0.132812 -7.394531 C 0.316406 -7.714844 0.800781 -7.632812 1.128906 -7.167969 C 1.546875 -6.574219 1.574219 -5.492188 0.839844 -4.972656 Z M 0.839844 -4.972656 "/></g></g></g><g fill="#ffffff" fill-opacity="1"><g transform="translate(249.638013, 223.435543)"><g><path d="M 2.925781 -8.121094 C 2.960938 -7.5 2.917969 -7.011719 2.503906 -6.699219 C 1.882812 -6.234375 1.429688 -6.347656 1.140625 -6.734375 C 0.496094 -7.589844 0.652344 -8.617188 0.0625 -9.402344 C -0.5 -10.148438 -2.488281 -10.035156 -3.785156 -9.058594 C -4.53125 -8.5 -4.507812 -7.460938 -4.082031 -6.894531 C -3.707031 -6.398438 -3.390625 -6.351562 -3.042969 -6.464844 C -2.800781 -5.652344 -2.542969 -4.589844 -2.527344 -4.019531 C -2.507812 -3.625 -1.554688 -3.648438 -1.644531 -4.144531 C -1.765625 -4.765625 -2.015625 -6.046875 -2.183594 -6.785156 C -1.476562 -6.992188 -1.039062 -6.78125 -0.933594 -6.644531 C -0.433594 -5.980469 -0.425781 -3.957031 0.539062 -2.675781 C 1.070312 -1.96875 2.015625 -1.515625 3.148438 -2.367188 C 5.011719 -3.765625 3.9375 -7.152344 3.808594 -8.242188 C 3.761719 -8.621094 2.898438 -8.617188 2.925781 -8.121094 Z M 2.925781 -8.121094 "/></g></g></g><g clip-path="url(#c9df9d1c53)"><path fill="#ffffff" d="M 281.644531 227.054688 C 284.835938 227.9375 285.550781 228.652344 286.433594 231.839844 C 287.3125 228.652344 288.027344 227.9375 291.222656 227.054688 C 288.027344 226.175781 287.3125 225.460938 286.433594 222.273438 C 285.550781 225.460938 284.835938 226.175781 281.644531 227.054688 Z M 270.96875 201.847656 C 273.179688 209.84375 274.96875 211.632812 282.96875 213.839844 C 274.96875 216.046875 273.179688 217.835938 270.96875 225.828125 C 268.761719 217.835938 266.96875 216.046875 258.972656 213.839844 C 266.96875 211.632812 268.761719 209.84375 270.96875 201.847656 Z M 270.96875 201.847656 " fill-opacity="1" fill-rule="nonzero"/></g></svg>